<svg xmlns="http://www.w3.org/2000/svg" xmlns:xlink="http://www.w3.org/1999/xlink" width="1920" zoomAndPan="magnify" viewBox="0 0 1440 809.999993" height="1080" preserveAspectRatio="xMidYMid meet" version="1.0"><defs><g><g id="id1"/></g></defs><rect x="-144" width="1728" fill="rgb(100%, 100%, 100%)" y="-80.999999" height="971.999992" fill-opacity="1"/><rect x="-144" width="1728" fill="rgb(0%, 0%, 0%)" y="-80.999999" height="971.999992" fill-opacity="1"/><rect x="-144" width="1728" fill="rgb(100%, 100%, 100%)" y="-80.999999" height="971.999992" fill-opacity="1"/><rect x="-144" width="1728" fill="rgb(0%, 0%, 0%)" y="-80.999999" height="971.999992" fill-opacity="1"/><g fill="rgb(100%, 100%, 100%)" fill-opacity="1"><g transform="translate(374.647105, 457.499997)"><g><path d="M 22.40625 0.953125 C 19.3125 0.953125 16.828125 -0.00390625 14.953125 -1.921875 C 13.085938 -3.835938 12.15625 -6.34375 12.15625 -9.4375 L 12.15625 -103.359375 C 12.15625 -106.453125 13.085938 -108.929688 14.953125 -110.796875 C 16.828125 -112.660156 19.3125 -113.59375 22.40625 -113.59375 C 25.601562 -113.59375 28.132812 -112.660156 30 -110.796875 C 31.863281 -108.929688 32.796875 -106.453125 32.796875 -103.359375 L 32.796875 -9.4375 C 32.796875 -6.34375 31.863281 -3.835938 30 -1.921875 C 28.132812 -0.00390625 25.601562 0.953125 22.40625 0.953125 Z M 22.40625 0.953125 "/></g></g></g><g fill="rgb(100%, 100%, 100%)" fill-opacity="1"><g transform="translate(419.606008, 457.499997)"><g><path d="M 55.84375 -80.15625 C 65.226562 -80.15625 72.210938 -77.488281 76.796875 -72.15625 C 81.390625 -66.820312 83.6875 -58.769531 83.6875 -48 L 83.6875 -8.640625 C 83.6875 -5.648438 82.804688 -3.300781 81.046875 -1.59375 C 79.285156 0.101562 76.859375 0.953125 73.765625 0.953125 C 70.671875 0.953125 68.21875 0.101562 66.40625 -1.59375 C 64.59375 -3.300781 63.6875 -5.648438 63.6875 -8.640625 L 63.6875 -46.875 C 63.6875 -52.957031 62.535156 -57.382812 60.234375 -60.15625 C 57.941406 -62.925781 54.34375 -64.3125 49.4375 -64.3125 C 43.675781 -64.3125 39.0625 -62.5 35.59375 -58.875 C 32.132812 -55.25 30.40625 -50.394531 30.40625 -44.3125 L 30.40625 -8.640625 C 30.40625 -5.648438 29.492188 -3.300781 27.671875 -1.59375 C 25.859375 0.101562 23.40625 0.953125 20.3125 0.953125 C 17.226562 0.953125 14.804688 0.101562 13.046875 -1.59375 C 11.285156 -3.300781 10.40625 -5.648438 10.40625 -8.640625 L 10.40625 -70.5625 C 10.40625 -73.332031 11.3125 -75.570312 13.125 -77.28125 C 14.9375 -78.988281 17.390625 -79.84375 20.484375 -79.84375 C 23.253906 -79.84375 25.519531 -79.015625 27.28125 -77.359375 C 29.039062 -75.703125 29.921875 -73.539062 29.921875 -70.875 L 29.921875 -66.5625 C 32.585938 -70.9375 36.160156 -74.296875 40.640625 -76.640625 C 45.117188 -78.984375 50.1875 -80.15625 55.84375 -80.15625 Z M 55.84375 -80.15625 "/></g></g></g><g fill="rgb(100%, 100%, 100%)" fill-opacity="1"><g transform="translate(513.203716, 457.499997)"><g><path d="M 45.125 1.28125 C 37.332031 1.28125 30.476562 -0.367188 24.5625 -3.671875 C 18.644531 -6.984375 14.082031 -11.675781 10.875 -17.75 C 7.675781 -23.832031 6.078125 -30.929688 6.078125 -39.046875 C 6.078125 -47.148438 7.753906 -54.320312 11.109375 -60.5625 C 14.472656 -66.800781 19.195312 -71.625 25.28125 -75.03125 C 31.363281 -78.445312 38.347656 -80.15625 46.234375 -80.15625 C 50.398438 -80.15625 54.585938 -79.566406 58.796875 -78.390625 C 63.015625 -77.222656 66.722656 -75.625 69.921875 -73.59375 C 73.335938 -71.351562 75.046875 -68.53125 75.046875 -65.125 C 75.046875 -62.769531 74.484375 -60.875 73.359375 -59.4375 C 72.242188 -58 70.773438 -57.28125 68.953125 -57.28125 C 67.785156 -57.28125 66.5625 -57.546875 65.28125 -58.078125 C 64 -58.609375 62.71875 -59.25 61.4375 -60 C 59.09375 -61.382812 56.851562 -62.476562 54.71875 -63.28125 C 52.582031 -64.082031 50.128906 -64.484375 47.359375 -64.484375 C 40.742188 -64.484375 35.648438 -62.320312 32.078125 -58 C 28.503906 -53.675781 26.71875 -47.460938 26.71875 -39.359375 C 26.71875 -31.359375 28.503906 -25.195312 32.078125 -20.875 C 35.648438 -16.5625 40.742188 -14.40625 47.359375 -14.40625 C 50.023438 -14.40625 52.394531 -14.800781 54.46875 -15.59375 C 56.550781 -16.394531 58.875 -17.488281 61.4375 -18.875 C 63.039062 -19.832031 64.425781 -20.550781 65.59375 -21.03125 C 66.769531 -21.519531 67.945312 -21.765625 69.125 -21.765625 C 70.832031 -21.765625 72.269531 -21.015625 73.4375 -19.515625 C 74.613281 -18.023438 75.203125 -16.160156 75.203125 -13.921875 C 75.203125 -12.109375 74.800781 -10.535156 74 -9.203125 C 73.195312 -7.867188 71.890625 -6.664062 70.078125 -5.59375 C 66.773438 -3.46875 62.9375 -1.789062 58.5625 -0.5625 C 54.1875 0.664062 49.707031 1.28125 45.125 1.28125 Z M 45.125 1.28125 "/></g></g></g><g fill="rgb(100%, 100%, 100%)" fill-opacity="1"><g transform="translate(591.281807, 457.499997)"><g><path d="M 46.078125 1.28125 C 38.078125 1.28125 31.0625 -0.367188 25.03125 -3.671875 C 19.007812 -6.984375 14.34375 -11.734375 11.03125 -17.921875 C 7.726562 -24.109375 6.078125 -31.304688 6.078125 -39.515625 C 6.078125 -47.734375 7.726562 -54.90625 11.03125 -61.03125 C 14.34375 -67.164062 19.007812 -71.882812 25.03125 -75.1875 C 31.0625 -78.5 38.078125 -80.15625 46.078125 -80.15625 C 54.078125 -80.15625 61.085938 -78.5 67.109375 -75.1875 C 73.140625 -71.882812 77.78125 -67.164062 81.03125 -61.03125 C 84.289062 -54.90625 85.921875 -47.734375 85.921875 -39.515625 C 85.921875 -31.304688 84.289062 -24.109375 81.03125 -17.921875 C 77.78125 -11.734375 73.140625 -6.984375 67.109375 -3.671875 C 61.085938 -0.367188 54.078125 1.28125 46.078125 1.28125 Z M 45.921875 -14.234375 C 52.429688 -14.234375 57.390625 -16.367188 60.796875 -20.640625 C 64.210938 -24.910156 65.921875 -31.203125 65.921875 -39.515625 C 65.921875 -47.734375 64.210938 -54 60.796875 -58.3125 C 57.390625 -62.632812 52.484375 -64.796875 46.078125 -64.796875 C 39.679688 -64.796875 34.75 -62.632812 31.28125 -58.3125 C 27.8125 -54 26.078125 -47.734375 26.078125 -39.515625 C 26.078125 -31.203125 27.78125 -24.910156 31.1875 -20.640625 C 34.601562 -16.367188 39.515625 -14.234375 45.921875 -14.234375 Z M 45.921875 -14.234375 "/></g></g></g><g fill="rgb(100%, 100%, 100%)" fill-opacity="1"><g transform="translate(683.279552, 457.499997)"><g><path d="M 76.640625 -79.84375 C 79.628906 -79.84375 82.03125 -78.988281 83.84375 -77.28125 C 85.65625 -75.570312 86.5625 -73.28125 86.5625 -70.40625 L 86.5625 -7.203125 C 86.5625 5.066406 83.144531 14.347656 76.3125 20.640625 C 69.488281 26.929688 59.410156 30.078125 46.078125 30.078125 C 34.453125 30.078125 24.742188 27.890625 16.953125 23.515625 C 13.015625 21.171875 11.046875 18.347656 11.046875 15.046875 C 11.046875 12.691406 11.601562 10.820312 12.71875 9.4375 C 13.84375 8.050781 15.3125 7.359375 17.125 7.359375 C 18.082031 7.359375 19.253906 7.597656 20.640625 8.078125 C 22.023438 8.554688 23.460938 9.117188 24.953125 9.765625 C 28.796875 11.359375 32.238281 12.582031 35.28125 13.4375 C 38.320312 14.289062 41.816406 14.71875 45.765625 14.71875 C 59.734375 14.71875 66.71875 7.890625 66.71875 -5.765625 L 66.71875 -16 C 64.375 -11.625 60.960938 -8.234375 56.484375 -5.828125 C 52.003906 -3.429688 46.882812 -2.234375 41.125 -2.234375 C 34.289062 -2.234375 28.234375 -3.859375 22.953125 -7.109375 C 17.679688 -10.367188 13.550781 -14.929688 10.5625 -20.796875 C 7.570312 -26.660156 6.078125 -33.4375 6.078125 -41.125 C 6.078125 -48.800781 7.539062 -55.597656 10.46875 -61.515625 C 13.40625 -67.441406 17.539062 -72.03125 22.875 -75.28125 C 28.207031 -78.53125 34.289062 -80.15625 41.125 -80.15625 C 46.882812 -80.15625 52.003906 -78.953125 56.484375 -76.546875 C 60.960938 -74.148438 64.375 -70.769531 66.71875 -66.40625 L 66.71875 -70.5625 C 66.71875 -73.332031 67.625 -75.570312 69.4375 -77.28125 C 71.25 -78.988281 73.648438 -79.84375 76.640625 -79.84375 Z M 46.40625 -17.765625 C 52.800781 -17.765625 57.785156 -19.84375 61.359375 -24 C 64.929688 -28.15625 66.71875 -33.863281 66.71875 -41.125 C 66.71875 -48.476562 64.929688 -54.234375 61.359375 -58.390625 C 57.785156 -62.554688 52.800781 -64.640625 46.40625 -64.640625 C 40.101562 -64.640625 35.140625 -62.554688 31.515625 -58.390625 C 27.890625 -54.234375 26.078125 -48.476562 26.078125 -41.125 C 26.078125 -33.863281 27.890625 -28.15625 31.515625 -24 C 35.140625 -19.84375 40.101562 -17.765625 46.40625 -17.765625 Z M 46.40625 -17.765625 "/></g></g></g><g fill="rgb(100%, 100%, 100%)" fill-opacity="1"><g transform="translate(780.0772, 457.499997)"><g><path d="M 55.84375 -80.15625 C 65.226562 -80.15625 72.210938 -77.488281 76.796875 -72.15625 C 81.390625 -66.820312 83.6875 -58.769531 83.6875 -48 L 83.6875 -8.640625 C 83.6875 -5.648438 82.804688 -3.300781 81.046875 -1.59375 C 79.285156 0.101562 76.859375 0.953125 73.765625 0.953125 C 70.671875 0.953125 68.21875 0.101562 66.40625 -1.59375 C 64.59375 -3.300781 63.6875 -5.648438 63.6875 -8.640625 L 63.6875 -46.875 C 63.6875 -52.957031 62.535156 -57.382812 60.234375 -60.15625 C 57.941406 -62.925781 54.34375 -64.3125 49.4375 -64.3125 C 43.675781 -64.3125 39.0625 -62.5 35.59375 -58.875 C 32.132812 -55.25 30.40625 -50.394531 30.40625 -44.3125 L 30.40625 -8.640625 C 30.40625 -5.648438 29.492188 -3.300781 27.671875 -1.59375 C 25.859375 0.101562 23.40625 0.953125 20.3125 0.953125 C 17.226562 0.953125 14.804688 0.101562 13.046875 -1.59375 C 11.285156 -3.300781 10.40625 -5.648438 10.40625 -8.640625 L 10.40625 -70.5625 C 10.40625 -73.332031 11.3125 -75.570312 13.125 -77.28125 C 14.9375 -78.988281 17.390625 -79.84375 20.484375 -79.84375 C 23.253906 -79.84375 25.519531 -79.015625 27.28125 -77.359375 C 29.039062 -75.703125 29.921875 -73.539062 29.921875 -70.875 L 29.921875 -66.5625 C 32.585938 -70.9375 36.160156 -74.296875 40.640625 -76.640625 C 45.117188 -78.984375 50.1875 -80.15625 55.84375 -80.15625 Z M 55.84375 -80.15625 "/></g></g></g><g fill="rgb(100%, 100%, 100%)" fill-opacity="1"><g transform="translate(873.674897, 457.499997)"><g><path d="M 20.3125 0.953125 C 17.4375 0.953125 15.066406 0.128906 13.203125 -1.515625 C 11.335938 -3.171875 10.40625 -5.546875 10.40625 -8.640625 L 10.40625 -70.40625 C 10.40625 -73.5 11.335938 -75.84375 13.203125 -77.4375 C 15.066406 -79.039062 17.4375 -79.84375 20.3125 -79.84375 C 23.195312 -79.84375 25.597656 -79.039062 27.515625 -77.4375 C 29.441406 -75.84375 30.40625 -73.5 30.40625 -70.40625 L 30.40625 -8.640625 C 30.40625 -5.546875 29.441406 -3.171875 27.515625 -1.515625 C 25.597656 0.128906 23.195312 0.953125 20.3125 0.953125 Z M 20.3125 -94.078125 C 16.6875 -94.078125 13.804688 -95.0625 11.671875 -97.03125 C 9.535156 -99.007812 8.46875 -101.597656 8.46875 -104.796875 C 8.46875 -107.992188 9.535156 -110.550781 11.671875 -112.46875 C 13.804688 -114.394531 16.6875 -115.359375 20.3125 -115.359375 C 23.832031 -115.359375 26.6875 -114.394531 28.875 -112.46875 C 31.0625 -110.550781 32.15625 -107.992188 32.15625 -104.796875 C 32.15625 -101.597656 31.085938 -99.007812 28.953125 -97.03125 C 26.816406 -95.0625 23.9375 -94.078125 20.3125 -94.078125 Z M 20.3125 -94.078125 "/></g></g></g><g fill="rgb(100%, 100%, 100%)" fill-opacity="1"><g transform="translate(914.313918, 457.499997)"><g><path d="M 51.046875 -13.921875 C 56.378906 -13.597656 59.046875 -11.195312 59.046875 -6.71875 C 59.046875 -4.15625 58.003906 -2.207031 55.921875 -0.875 C 53.835938 0.457031 50.878906 1.015625 47.046875 0.796875 L 42.71875 0.484375 C 24.800781 -0.796875 15.84375 -10.394531 15.84375 -28.3125 L 15.84375 -63.203125 L 7.84375 -63.203125 C 4.957031 -63.203125 2.738281 -63.84375 1.1875 -65.125 C -0.351562 -66.40625 -1.125 -68.269531 -1.125 -70.71875 C -1.125 -73.175781 -0.351562 -75.039062 1.1875 -76.3125 C 2.738281 -77.59375 4.957031 -78.234375 7.84375 -78.234375 L 15.84375 -78.234375 L 15.84375 -92.953125 C 15.84375 -95.835938 16.75 -98.132812 18.5625 -99.84375 C 20.375 -101.550781 22.828125 -102.40625 25.921875 -102.40625 C 28.910156 -102.40625 31.3125 -101.550781 33.125 -99.84375 C 34.9375 -98.132812 35.84375 -95.835938 35.84375 -92.953125 L 35.84375 -78.234375 L 49.4375 -78.234375 C 52.320312 -78.234375 54.535156 -77.59375 56.078125 -76.3125 C 57.628906 -75.039062 58.40625 -73.175781 58.40625 -70.71875 C 58.40625 -68.269531 57.628906 -66.40625 56.078125 -65.125 C 54.535156 -63.84375 52.320312 -63.203125 49.4375 -63.203125 L 35.84375 -63.203125 L 35.84375 -26.875 C 35.84375 -18.988281 39.46875 -14.773438 46.71875 -14.234375 Z M 51.046875 -13.921875 "/></g></g></g><g fill="rgb(100%, 100%, 100%)" fill-opacity="1"><g transform="translate(973.352475, 457.499997)"><g><path d="M 46.078125 1.28125 C 38.078125 1.28125 31.0625 -0.367188 25.03125 -3.671875 C 19.007812 -6.984375 14.34375 -11.734375 11.03125 -17.921875 C 7.726562 -24.109375 6.078125 -31.304688 6.078125 -39.515625 C 6.078125 -47.734375 7.726562 -54.90625 11.03125 -61.03125 C 14.34375 -67.164062 19.007812 -71.882812 25.03125 -75.1875 C 31.0625 -78.5 38.078125 -80.15625 46.078125 -80.15625 C 54.078125 -80.15625 61.085938 -78.5 67.109375 -75.1875 C 73.140625 -71.882812 77.78125 -67.164062 81.03125 -61.03125 C 84.289062 -54.90625 85.921875 -47.734375 85.921875 -39.515625 C 85.921875 -31.304688 84.289062 -24.109375 81.03125 -17.921875 C 77.78125 -11.734375 73.140625 -6.984375 67.109375 -3.671875 C 61.085938 -0.367188 54.078125 1.28125 46.078125 1.28125 Z M 45.921875 -14.234375 C 52.429688 -14.234375 57.390625 -16.367188 60.796875 -20.640625 C 64.210938 -24.910156 65.921875 -31.203125 65.921875 -39.515625 C 65.921875 -47.734375 64.210938 -54 60.796875 -58.3125 C 57.390625 -62.632812 52.484375 -64.796875 46.078125 -64.796875 C 39.679688 -64.796875 34.75 -62.632812 31.28125 -58.3125 C 27.8125 -54 26.078125 -47.734375 26.078125 -39.515625 C 26.078125 -31.203125 27.78125 -24.910156 31.1875 -20.640625 C 34.601562 -16.367188 39.515625 -14.234375 45.921875 -14.234375 Z M 45.921875 -14.234375 "/></g></g></g></svg>