<svg xmlns="http://www.w3.org/2000/svg" xmlns:xlink="http://www.w3.org/1999/xlink" width="1920" zoomAndPan="magnify" viewBox="0 0 1440 809.999993" height="1080" preserveAspectRatio="xMidYMid meet" version="1.0"><defs><g><g id="id1"/></g></defs><rect x="-144" width="1728" fill="rgb(100%, 100%, 100%)" y="-80.999999" height="971.999992" fill-opacity="1"/><rect x="-144" width="1728" fill="rgb(0%, 0%, 0%)" y="-80.999999" height="971.999992" fill-opacity="1"/><rect x="-144" width="1728" fill="rgb(100%, 100%, 100%)" y="-80.999999" height="971.999992" fill-opacity="1"/><rect x="-144" width="1728" fill="rgb(0%, 0%, 0%)" y="-80.999999" height="971.999992" fill-opacity="1"/><g fill="rgb(100%, 100%, 100%)" fill-opacity="1"><g transform="translate(262.329427, 457.499997)"><g><path d="M 104.484375 15.6875 C 105.648438 17.601562 106.234375 19.46875 106.234375 21.28125 C 106.234375 23.726562 105.273438 25.722656 103.359375 27.265625 C 101.441406 28.816406 99.203125 29.59375 96.640625 29.59375 C 94.722656 29.59375 92.910156 29.140625 91.203125 28.234375 C 89.492188 27.328125 88.109375 25.96875 87.046875 24.15625 L 77.59375 8.640625 C 76.101562 6.179688 74.15625 4.363281 71.75 3.1875 C 69.351562 2.019531 66.238281 1.4375 62.40625 1.4375 C 51.414062 1.4375 41.894531 -0.90625 33.84375 -5.59375 C 25.789062 -10.289062 19.578125 -17.007812 15.203125 -25.75 C 10.828125 -34.5 8.640625 -44.742188 8.640625 -56.484375 C 8.640625 -68.210938 10.828125 -78.421875 15.203125 -87.109375 C 19.578125 -95.804688 25.789062 -102.5 33.84375 -107.1875 C 41.894531 -111.882812 51.414062 -114.234375 62.40625 -114.234375 C 73.28125 -114.234375 82.742188 -111.882812 90.796875 -107.1875 C 98.847656 -102.5 105.0625 -95.804688 109.4375 -87.109375 C 113.8125 -78.421875 116 -68.210938 116 -56.484375 C 116 -43.785156 113.460938 -32.875 108.390625 -23.75 C 103.328125 -14.632812 96.101562 -8 86.71875 -3.84375 C 91.625 -2.132812 95.675781 1.382812 98.875 6.71875 Z M 62.40625 -15.046875 C 72.75 -15.046875 80.828125 -18.617188 86.640625 -25.765625 C 92.453125 -32.910156 95.359375 -43.148438 95.359375 -56.484375 C 95.359375 -69.816406 92.453125 -80.03125 86.640625 -87.125 C 80.828125 -94.21875 72.75 -97.765625 62.40625 -97.765625 C 51.945312 -97.765625 43.8125 -94.21875 38 -87.125 C 32.1875 -80.03125 29.28125 -69.816406 29.28125 -56.484375 C 29.28125 -43.148438 32.1875 -32.910156 38 -25.765625 C 43.8125 -18.617188 51.945312 -15.046875 62.40625 -15.046875 Z M 62.40625 -15.046875 "/></g></g></g><g fill="rgb(100%, 100%, 100%)" fill-opacity="1"><g transform="translate(386.966372, 457.499997)"><g><path d="M 72.15625 -79.84375 C 75.25 -79.84375 77.703125 -78.988281 79.515625 -77.28125 C 81.328125 -75.570312 82.234375 -73.28125 82.234375 -70.40625 L 82.234375 -8.3125 C 82.234375 -5.539062 81.300781 -3.300781 79.4375 -1.59375 C 77.570312 0.101562 75.144531 0.953125 72.15625 0.953125 C 69.28125 0.953125 66.988281 0.15625 65.28125 -1.4375 C 63.570312 -3.039062 62.71875 -5.226562 62.71875 -8 L 62.71875 -12 C 60.269531 -7.726562 56.960938 -4.445312 52.796875 -2.15625 C 48.640625 0.132812 43.945312 1.28125 38.71875 1.28125 C 19.519531 1.28125 9.921875 -9.492188 9.921875 -31.046875 L 9.921875 -70.40625 C 9.921875 -73.28125 10.828125 -75.570312 12.640625 -77.28125 C 14.453125 -78.988281 16.851562 -79.84375 19.84375 -79.84375 C 22.9375 -79.84375 25.390625 -78.988281 27.203125 -77.28125 C 29.015625 -75.570312 29.921875 -73.28125 29.921875 -70.40625 L 29.921875 -30.875 C 29.921875 -25.332031 31.039062 -21.226562 33.28125 -18.5625 C 35.519531 -15.894531 39.039062 -14.5625 43.84375 -14.5625 C 49.382812 -14.5625 53.832031 -16.398438 57.1875 -20.078125 C 60.550781 -23.753906 62.234375 -28.632812 62.234375 -34.71875 L 62.234375 -70.40625 C 62.234375 -73.28125 63.140625 -75.570312 64.953125 -77.28125 C 66.773438 -78.988281 69.175781 -79.84375 72.15625 -79.84375 Z M 72.15625 -79.84375 "/></g></g></g><g fill="rgb(100%, 100%, 100%)" fill-opacity="1"><g transform="translate(479.604105, 457.499997)"><g><path d="M 72.3125 -21.4375 C 74.132812 -21.4375 75.601562 -20.742188 76.71875 -19.359375 C 77.84375 -17.972656 78.40625 -16.109375 78.40625 -13.765625 C 78.40625 -10.453125 76.429688 -7.675781 72.484375 -5.4375 C 68.859375 -3.414062 64.75 -1.789062 60.15625 -0.5625 C 55.570312 0.664062 51.203125 1.28125 47.046875 1.28125 C 34.453125 1.28125 24.472656 -2.34375 17.109375 -9.59375 C 9.753906 -16.851562 6.078125 -26.773438 6.078125 -39.359375 C 6.078125 -47.359375 7.675781 -54.453125 10.875 -60.640625 C 14.082031 -66.828125 18.59375 -71.625 24.40625 -75.03125 C 30.21875 -78.445312 36.800781 -80.15625 44.15625 -80.15625 C 51.195312 -80.15625 57.332031 -78.609375 62.5625 -75.515625 C 67.789062 -72.421875 71.84375 -68.046875 74.71875 -62.390625 C 77.601562 -56.742188 79.046875 -50.082031 79.046875 -42.40625 C 79.046875 -37.8125 77.015625 -35.515625 72.953125 -35.515625 L 25.765625 -35.515625 C 26.398438 -28.160156 28.476562 -22.75 32 -19.28125 C 35.519531 -15.8125 40.640625 -14.078125 47.359375 -14.078125 C 50.773438 -14.078125 53.785156 -14.503906 56.390625 -15.359375 C 59.003906 -16.210938 61.96875 -17.382812 65.28125 -18.875 C 68.476562 -20.582031 70.820312 -21.4375 72.3125 -21.4375 Z M 44.640625 -66.078125 C 39.203125 -66.078125 34.851562 -64.367188 31.59375 -60.953125 C 28.34375 -57.546875 26.398438 -52.640625 25.765625 -46.234375 L 61.921875 -46.234375 C 61.703125 -52.742188 60.097656 -57.675781 57.109375 -61.03125 C 54.128906 -64.394531 49.972656 -66.078125 44.640625 -66.078125 Z M 44.640625 -66.078125 "/></g></g></g><g fill="rgb(100%, 100%, 100%)" fill-opacity="1"><g transform="translate(564.562017, 457.499997)"><g><path d="M 54.078125 -79.84375 C 56.847656 -80.050781 59.035156 -79.460938 60.640625 -78.078125 C 62.242188 -76.691406 63.046875 -74.613281 63.046875 -71.84375 C 63.046875 -68.957031 62.347656 -66.820312 60.953125 -65.4375 C 59.566406 -64.050781 57.0625 -63.144531 53.4375 -62.71875 L 48.640625 -62.234375 C 42.347656 -61.597656 37.734375 -59.46875 34.796875 -55.84375 C 31.867188 -52.21875 30.40625 -47.679688 30.40625 -42.234375 L 30.40625 -8.640625 C 30.40625 -5.546875 29.441406 -3.171875 27.515625 -1.515625 C 25.597656 0.128906 23.195312 0.953125 20.3125 0.953125 C 17.4375 0.953125 15.066406 0.128906 13.203125 -1.515625 C 11.335938 -3.171875 10.40625 -5.546875 10.40625 -8.640625 L 10.40625 -70.5625 C 10.40625 -73.550781 11.335938 -75.84375 13.203125 -77.4375 C 15.066406 -79.039062 17.382812 -79.84375 20.15625 -79.84375 C 22.925781 -79.84375 25.164062 -79.066406 26.875 -77.515625 C 28.582031 -75.972656 29.4375 -73.757812 29.4375 -70.875 L 29.4375 -64.484375 C 31.46875 -69.171875 34.484375 -72.796875 38.484375 -75.359375 C 42.484375 -77.921875 46.9375 -79.363281 51.84375 -79.6875 Z M 54.078125 -79.84375 "/></g></g></g><g fill="rgb(100%, 100%, 100%)" fill-opacity="1"><g transform="translate(625.840502, 457.499997)"><g><path d="M 64.953125 -74.078125 C 65.804688 -75.992188 66.953125 -77.40625 68.390625 -78.3125 C 69.835938 -79.226562 71.414062 -79.6875 73.125 -79.6875 C 75.570312 -79.6875 77.78125 -78.859375 79.75 -77.203125 C 81.726562 -75.546875 82.71875 -73.492188 82.71875 -71.046875 C 82.71875 -69.867188 82.398438 -68.640625 81.765625 -67.359375 L 38.078125 24.15625 C 36.265625 27.78125 33.4375 29.59375 29.59375 29.59375 C 27.144531 29.59375 24.984375 28.816406 23.109375 27.265625 C 21.242188 25.722656 20.3125 23.78125 20.3125 21.4375 C 20.3125 20.269531 20.632812 18.9375 21.28125 17.4375 L 32.15625 -5.4375 L 2.40625 -67.359375 C 1.863281 -68.421875 1.59375 -69.648438 1.59375 -71.046875 C 1.59375 -73.492188 2.632812 -75.570312 4.71875 -77.28125 C 6.800781 -78.988281 9.175781 -79.84375 11.84375 -79.84375 C 13.65625 -79.84375 15.304688 -79.390625 16.796875 -78.484375 C 18.296875 -77.578125 19.46875 -76.160156 20.3125 -74.234375 L 42.71875 -24.796875 Z M 64.953125 -74.078125 "/></g></g></g><g fill="rgb(100%, 100%, 100%)" fill-opacity="1"><g transform="translate(753.357387, 457.499997)"><g><path d="M 51.203125 1.4375 C 42.984375 1.4375 35.21875 0.34375 27.90625 -1.84375 C 20.601562 -4.03125 14.660156 -6.988281 10.078125 -10.71875 C 7.628906 -12.53125 6.40625 -15.09375 6.40625 -18.40625 C 6.40625 -20.644531 7.070312 -22.585938 8.40625 -24.234375 C 9.738281 -25.890625 11.3125 -26.71875 13.125 -26.71875 C 15.039062 -26.71875 17.226562 -25.972656 19.6875 -24.484375 C 24.269531 -21.171875 29.066406 -18.769531 34.078125 -17.28125 C 39.085938 -15.789062 44.632812 -15.046875 50.71875 -15.046875 C 58.507812 -15.046875 64.484375 -16.40625 68.640625 -19.125 C 72.796875 -21.84375 74.875 -25.816406 74.875 -31.046875 C 74.875 -35.097656 72.925781 -38.21875 69.03125 -40.40625 C 65.144531 -42.59375 58.664062 -44.695312 49.59375 -46.71875 C 40.207031 -48.75 32.582031 -51.097656 26.71875 -53.765625 C 20.851562 -56.429688 16.425781 -59.84375 13.4375 -64 C 10.445312 -68.15625 8.953125 -73.4375 8.953125 -79.84375 C 8.953125 -86.457031 10.816406 -92.375 14.546875 -97.59375 C 18.285156 -102.820312 23.488281 -106.898438 30.15625 -109.828125 C 36.820312 -112.765625 44.316406 -114.234375 52.640625 -114.234375 C 67.890625 -114.234375 80.316406 -110.179688 89.921875 -102.078125 C 91.304688 -100.898438 92.289062 -99.75 92.875 -98.625 C 93.46875 -97.507812 93.765625 -96.101562 93.765625 -94.40625 C 93.765625 -92.164062 93.097656 -90.21875 91.765625 -88.5625 C 90.429688 -86.90625 88.859375 -86.078125 87.046875 -86.078125 C 85.972656 -86.078125 84.984375 -86.238281 84.078125 -86.5625 C 83.171875 -86.882812 81.972656 -87.46875 80.484375 -88.3125 C 76.109375 -91.519531 71.863281 -93.894531 67.75 -95.4375 C 63.644531 -96.988281 58.609375 -97.765625 52.640625 -97.765625 C 45.390625 -97.765625 39.65625 -96.296875 35.4375 -93.359375 C 31.226562 -90.421875 29.125 -86.34375 29.125 -81.125 C 29.125 -76.75 30.988281 -73.382812 34.71875 -71.03125 C 38.445312 -68.6875 44.796875 -66.503906 53.765625 -64.484375 C 63.253906 -62.347656 70.957031 -59.972656 76.875 -57.359375 C 82.800781 -54.742188 87.335938 -51.410156 90.484375 -47.359375 C 93.628906 -43.304688 95.203125 -38.238281 95.203125 -32.15625 C 95.203125 -25.539062 93.359375 -19.703125 89.671875 -14.640625 C 85.992188 -9.578125 80.820312 -5.628906 74.15625 -2.796875 C 67.488281 0.0234375 59.835938 1.4375 51.203125 1.4375 Z M 51.203125 1.4375 "/></g></g></g><g fill="rgb(100%, 100%, 100%)" fill-opacity="1"><g transform="translate(855.434882, 457.499997)"><g><path d="M 56.15625 -80.15625 C 74.507812 -80.15625 83.6875 -69.4375 83.6875 -48 L 83.6875 -8.640625 C 83.6875 -5.648438 82.804688 -3.300781 81.046875 -1.59375 C 79.285156 0.101562 76.859375 0.953125 73.765625 0.953125 C 70.671875 0.953125 68.21875 0.101562 66.40625 -1.59375 C 64.59375 -3.300781 63.6875 -5.648438 63.6875 -8.640625 L 63.6875 -48 C 63.6875 -53.65625 62.535156 -57.785156 60.234375 -60.390625 C 57.941406 -63.003906 54.34375 -64.3125 49.4375 -64.3125 C 43.675781 -64.3125 39.0625 -62.5 35.59375 -58.875 C 32.132812 -55.25 30.40625 -50.394531 30.40625 -44.3125 L 30.40625 -8.640625 C 30.40625 -5.648438 29.492188 -3.300781 27.671875 -1.59375 C 25.859375 0.101562 23.40625 0.953125 20.3125 0.953125 C 17.226562 0.953125 14.804688 0.101562 13.046875 -1.59375 C 11.285156 -3.300781 10.40625 -5.648438 10.40625 -8.640625 L 10.40625 -104.3125 C 10.40625 -107.09375 11.335938 -109.332031 13.203125 -111.03125 C 15.066406 -112.738281 17.492188 -113.59375 20.484375 -113.59375 C 23.460938 -113.59375 25.859375 -112.789062 27.671875 -111.1875 C 29.492188 -109.59375 30.40625 -107.410156 30.40625 -104.640625 L 30.40625 -67.359375 C 33.070312 -71.515625 36.617188 -74.6875 41.046875 -76.875 C 45.472656 -79.0625 50.507812 -80.15625 56.15625 -80.15625 Z M 56.15625 -80.15625 "/></g></g></g><g fill="rgb(100%, 100%, 100%)" fill-opacity="1"><g transform="translate(949.032579, 457.499997)"><g><path d="M 46.078125 1.28125 C 38.078125 1.28125 31.0625 -0.367188 25.03125 -3.671875 C 19.007812 -6.984375 14.34375 -11.734375 11.03125 -17.921875 C 7.726562 -24.109375 6.078125 -31.304688 6.078125 -39.515625 C 6.078125 -47.734375 7.726562 -54.90625 11.03125 -61.03125 C 14.34375 -67.164062 19.007812 -71.882812 25.03125 -75.1875 C 31.0625 -78.5 38.078125 -80.15625 46.078125 -80.15625 C 54.078125 -80.15625 61.085938 -78.5 67.109375 -75.1875 C 73.140625 -71.882812 77.78125 -67.164062 81.03125 -61.03125 C 84.289062 -54.90625 85.921875 -47.734375 85.921875 -39.515625 C 85.921875 -31.304688 84.289062 -24.109375 81.03125 -17.921875 C 77.78125 -11.734375 73.140625 -6.984375 67.109375 -3.671875 C 61.085938 -0.367188 54.078125 1.28125 46.078125 1.28125 Z M 45.921875 -14.234375 C 52.429688 -14.234375 57.390625 -16.367188 60.796875 -20.640625 C 64.210938 -24.910156 65.921875 -31.203125 65.921875 -39.515625 C 65.921875 -47.734375 64.210938 -54 60.796875 -58.3125 C 57.390625 -62.632812 52.484375 -64.796875 46.078125 -64.796875 C 39.679688 -64.796875 34.75 -62.632812 31.28125 -58.3125 C 27.8125 -54 26.078125 -47.734375 26.078125 -39.515625 C 26.078125 -31.203125 27.78125 -24.910156 31.1875 -20.640625 C 34.601562 -16.367188 39.515625 -14.234375 45.921875 -14.234375 Z M 45.921875 -14.234375 "/></g></g></g><g fill="rgb(100%, 100%, 100%)" fill-opacity="1"><g transform="translate(1041.030347, 457.499997)"><g><path d="M 51.046875 -13.921875 C 56.378906 -13.597656 59.046875 -11.195312 59.046875 -6.71875 C 59.046875 -4.15625 58.003906 -2.207031 55.921875 -0.875 C 53.835938 0.457031 50.878906 1.015625 47.046875 0.796875 L 42.71875 0.484375 C 24.800781 -0.796875 15.84375 -10.394531 15.84375 -28.3125 L 15.84375 -63.203125 L 7.84375 -63.203125 C 4.957031 -63.203125 2.738281 -63.84375 1.1875 -65.125 C -0.351562 -66.40625 -1.125 -68.269531 -1.125 -70.71875 C -1.125 -73.175781 -0.351562 -75.039062 1.1875 -76.3125 C 2.738281 -77.59375 4.957031 -78.234375 7.84375 -78.234375 L 15.84375 -78.234375 L 15.84375 -92.953125 C 15.84375 -95.835938 16.75 -98.132812 18.5625 -99.84375 C 20.375 -101.550781 22.828125 -102.40625 25.921875 -102.40625 C 28.910156 -102.40625 31.3125 -101.550781 33.125 -99.84375 C 34.9375 -98.132812 35.84375 -95.835938 35.84375 -92.953125 L 35.84375 -78.234375 L 49.4375 -78.234375 C 52.320312 -78.234375 54.535156 -77.59375 56.078125 -76.3125 C 57.628906 -75.039062 58.40625 -73.175781 58.40625 -70.71875 C 58.40625 -68.269531 57.628906 -66.40625 56.078125 -65.125 C 54.535156 -63.84375 52.320312 -63.203125 49.4375 -63.203125 L 35.84375 -63.203125 L 35.84375 -26.875 C 35.84375 -18.988281 39.46875 -14.773438 46.71875 -14.234375 Z M 51.046875 -13.921875 "/></g></g></g><g fill="rgb(100%, 100%, 100%)" fill-opacity="1"><g transform="translate(1100.068949, 457.499997)"><g><path d="M 38.71875 1.28125 C 27.09375 1.28125 17.707031 -1.007812 10.5625 -5.59375 C 7.144531 -7.625 5.4375 -10.503906 5.4375 -14.234375 C 5.4375 -16.367188 6.019531 -18.101562 7.1875 -19.4375 C 8.363281 -20.769531 9.804688 -21.4375 11.515625 -21.4375 C 13.328125 -21.4375 15.835938 -20.582031 19.046875 -18.875 C 22.453125 -17.28125 25.566406 -16.054688 28.390625 -15.203125 C 31.222656 -14.347656 34.828125 -13.921875 39.203125 -13.921875 C 43.679688 -13.921875 47.171875 -14.664062 49.671875 -16.15625 C 52.179688 -17.65625 53.4375 -19.738281 53.4375 -22.40625 C 53.4375 -24.21875 52.929688 -25.65625 51.921875 -26.71875 C 50.910156 -27.78125 49.097656 -28.765625 46.484375 -29.671875 C 43.867188 -30.585938 39.894531 -31.628906 34.5625 -32.796875 C 25.0625 -34.722656 18.257812 -37.441406 14.15625 -40.953125 C 10.050781 -44.472656 8 -49.328125 8 -55.515625 C 8 -60.210938 9.382812 -64.453125 12.15625 -68.234375 C 14.925781 -72.023438 18.738281 -74.957031 23.59375 -77.03125 C 28.445312 -79.113281 33.96875 -80.15625 40.15625 -80.15625 C 44.632812 -80.15625 48.953125 -79.59375 53.109375 -78.46875 C 57.273438 -77.351562 61.007812 -75.726562 64.3125 -73.59375 C 67.726562 -71.46875 69.4375 -68.644531 69.4375 -65.125 C 69.4375 -62.988281 68.847656 -61.195312 67.671875 -59.75 C 66.503906 -58.3125 65.066406 -57.59375 63.359375 -57.59375 C 62.179688 -57.59375 61.03125 -57.832031 59.90625 -58.3125 C 58.789062 -58.800781 57.382812 -59.523438 55.6875 -60.484375 C 52.59375 -62.078125 49.921875 -63.273438 47.671875 -64.078125 C 45.429688 -64.878906 42.660156 -65.28125 39.359375 -65.28125 C 35.410156 -65.28125 32.289062 -64.476562 30 -62.875 C 27.707031 -61.28125 26.5625 -59.09375 26.5625 -56.3125 C 26.5625 -53.644531 27.734375 -51.617188 30.078125 -50.234375 C 32.421875 -48.847656 36.957031 -47.460938 43.6875 -46.078125 C 50.832031 -44.585938 56.429688 -42.878906 60.484375 -40.953125 C 64.535156 -39.035156 67.441406 -36.632812 69.203125 -33.75 C 70.960938 -30.875 71.84375 -27.195312 71.84375 -22.71875 C 71.84375 -15.46875 68.828125 -9.65625 62.796875 -5.28125 C 56.773438 -0.90625 48.75 1.28125 38.71875 1.28125 Z M 38.71875 1.28125 "/></g></g></g></svg>