<svg xmlns="http://www.w3.org/2000/svg" xmlns:xlink="http://www.w3.org/1999/xlink" width="1920" zoomAndPan="magnify" viewBox="0 0 1440 809.999993" height="1080" preserveAspectRatio="xMidYMid meet" version="1.0"><defs><g><g id="id1"/></g></defs><rect x="-144" width="1728" fill="rgb(100%, 100%, 100%)" y="-80.999999" height="971.999992" fill-opacity="1"/><rect x="-144" width="1728" fill="rgb(0%, 0%, 0%)" y="-80.999999" height="971.999992" fill-opacity="1"/><rect x="-144" width="1728" fill="rgb(100%, 100%, 100%)" y="-80.999999" height="971.999992" fill-opacity="1"/><rect x="-144" width="1728" fill="rgb(0%, 0%, 0%)" y="-80.999999" height="971.999992" fill-opacity="1"/><g fill="rgb(100%, 100%, 100%)" fill-opacity="1"><g transform="translate(332.239559, 457.499997)"><g><path d="M 49.125 0.796875 C 45.914062 0.796875 43.378906 -0.132812 41.515625 -2 C 39.648438 -3.863281 38.71875 -6.34375 38.71875 -9.4375 L 38.71875 -95.84375 L 9.59375 -95.84375 C 3.195312 -95.84375 0 -98.664062 0 -104.3125 C 0 -109.96875 3.195312 -112.796875 9.59375 -112.796875 L 88.484375 -112.796875 C 94.878906 -112.796875 98.078125 -109.96875 98.078125 -104.3125 C 98.078125 -98.664062 94.878906 -95.84375 88.484375 -95.84375 L 59.359375 -95.84375 L 59.359375 -9.4375 C 59.359375 -6.34375 58.425781 -3.863281 56.5625 -2 C 54.695312 -0.132812 52.21875 0.796875 49.125 0.796875 Z M 49.125 0.796875 "/></g></g></g><g fill="rgb(100%, 100%, 100%)" fill-opacity="1"><g transform="translate(430.317161, 457.499997)"><g><path d="M 72.3125 -21.4375 C 74.132812 -21.4375 75.601562 -20.742188 76.71875 -19.359375 C 77.84375 -17.972656 78.40625 -16.109375 78.40625 -13.765625 C 78.40625 -10.453125 76.429688 -7.675781 72.484375 -5.4375 C 68.859375 -3.414062 64.75 -1.789062 60.15625 -0.5625 C 55.570312 0.664062 51.203125 1.28125 47.046875 1.28125 C 34.453125 1.28125 24.472656 -2.34375 17.109375 -9.59375 C 9.753906 -16.851562 6.078125 -26.773438 6.078125 -39.359375 C 6.078125 -47.359375 7.675781 -54.453125 10.875 -60.640625 C 14.082031 -66.828125 18.59375 -71.625 24.40625 -75.03125 C 30.21875 -78.445312 36.800781 -80.15625 44.15625 -80.15625 C 51.195312 -80.15625 57.332031 -78.609375 62.5625 -75.515625 C 67.789062 -72.421875 71.84375 -68.046875 74.71875 -62.390625 C 77.601562 -56.742188 79.046875 -50.082031 79.046875 -42.40625 C 79.046875 -37.8125 77.015625 -35.515625 72.953125 -35.515625 L 25.765625 -35.515625 C 26.398438 -28.160156 28.476562 -22.75 32 -19.28125 C 35.519531 -15.8125 40.640625 -14.078125 47.359375 -14.078125 C 50.773438 -14.078125 53.785156 -14.503906 56.390625 -15.359375 C 59.003906 -16.210938 61.96875 -17.382812 65.28125 -18.875 C 68.476562 -20.582031 70.820312 -21.4375 72.3125 -21.4375 Z M 44.640625 -66.078125 C 39.203125 -66.078125 34.851562 -64.367188 31.59375 -60.953125 C 28.34375 -57.546875 26.398438 -52.640625 25.765625 -46.234375 L 61.921875 -46.234375 C 61.703125 -52.742188 60.097656 -57.675781 57.109375 -61.03125 C 54.128906 -64.394531 49.972656 -66.078125 44.640625 -66.078125 Z M 44.640625 -66.078125 "/></g></g></g><g fill="rgb(100%, 100%, 100%)" fill-opacity="1"><g transform="translate(515.275084, 457.499997)"><g><path d="M 45.125 1.28125 C 37.332031 1.28125 30.476562 -0.367188 24.5625 -3.671875 C 18.644531 -6.984375 14.082031 -11.675781 10.875 -17.75 C 7.675781 -23.832031 6.078125 -30.929688 6.078125 -39.046875 C 6.078125 -47.148438 7.753906 -54.320312 11.109375 -60.5625 C 14.472656 -66.800781 19.195312 -71.625 25.28125 -75.03125 C 31.363281 -78.445312 38.347656 -80.15625 46.234375 -80.15625 C 50.398438 -80.15625 54.585938 -79.566406 58.796875 -78.390625 C 63.015625 -77.222656 66.722656 -75.625 69.921875 -73.59375 C 73.335938 -71.351562 75.046875 -68.53125 75.046875 -65.125 C 75.046875 -62.769531 74.484375 -60.875 73.359375 -59.4375 C 72.242188 -58 70.773438 -57.28125 68.953125 -57.28125 C 67.785156 -57.28125 66.5625 -57.546875 65.28125 -58.078125 C 64 -58.609375 62.71875 -59.25 61.4375 -60 C 59.09375 -61.382812 56.851562 -62.476562 54.71875 -63.28125 C 52.582031 -64.082031 50.128906 -64.484375 47.359375 -64.484375 C 40.742188 -64.484375 35.648438 -62.320312 32.078125 -58 C 28.503906 -53.675781 26.71875 -47.460938 26.71875 -39.359375 C 26.71875 -31.359375 28.503906 -25.195312 32.078125 -20.875 C 35.648438 -16.5625 40.742188 -14.40625 47.359375 -14.40625 C 50.023438 -14.40625 52.394531 -14.800781 54.46875 -15.59375 C 56.550781 -16.394531 58.875 -17.488281 61.4375 -18.875 C 63.039062 -19.832031 64.425781 -20.550781 65.59375 -21.03125 C 66.769531 -21.519531 67.945312 -21.765625 69.125 -21.765625 C 70.832031 -21.765625 72.269531 -21.015625 73.4375 -19.515625 C 74.613281 -18.023438 75.203125 -16.160156 75.203125 -13.921875 C 75.203125 -12.109375 74.800781 -10.535156 74 -9.203125 C 73.195312 -7.867188 71.890625 -6.664062 70.078125 -5.59375 C 66.773438 -3.46875 62.9375 -1.789062 58.5625 -0.5625 C 54.1875 0.664062 49.707031 1.28125 45.125 1.28125 Z M 45.125 1.28125 "/></g></g></g><g fill="rgb(100%, 100%, 100%)" fill-opacity="1"><g transform="translate(593.353163, 457.499997)"><g><path d="M 56.15625 -80.15625 C 74.507812 -80.15625 83.6875 -69.4375 83.6875 -48 L 83.6875 -8.640625 C 83.6875 -5.648438 82.804688 -3.300781 81.046875 -1.59375 C 79.285156 0.101562 76.859375 0.953125 73.765625 0.953125 C 70.671875 0.953125 68.21875 0.101562 66.40625 -1.59375 C 64.59375 -3.300781 63.6875 -5.648438 63.6875 -8.640625 L 63.6875 -48 C 63.6875 -53.65625 62.535156 -57.785156 60.234375 -60.390625 C 57.941406 -63.003906 54.34375 -64.3125 49.4375 -64.3125 C 43.675781 -64.3125 39.0625 -62.5 35.59375 -58.875 C 32.132812 -55.25 30.40625 -50.394531 30.40625 -44.3125 L 30.40625 -8.640625 C 30.40625 -5.648438 29.492188 -3.300781 27.671875 -1.59375 C 25.859375 0.101562 23.40625 0.953125 20.3125 0.953125 C 17.226562 0.953125 14.804688 0.101562 13.046875 -1.59375 C 11.285156 -3.300781 10.40625 -5.648438 10.40625 -8.640625 L 10.40625 -104.3125 C 10.40625 -107.09375 11.335938 -109.332031 13.203125 -111.03125 C 15.066406 -112.738281 17.492188 -113.59375 20.484375 -113.59375 C 23.460938 -113.59375 25.859375 -112.789062 27.671875 -111.1875 C 29.492188 -109.59375 30.40625 -107.410156 30.40625 -104.640625 L 30.40625 -67.359375 C 33.070312 -71.515625 36.617188 -74.6875 41.046875 -76.875 C 45.472656 -79.0625 50.507812 -80.15625 56.15625 -80.15625 Z M 56.15625 -80.15625 "/></g></g></g><g fill="rgb(100%, 100%, 100%)" fill-opacity="1"><g transform="translate(686.950861, 457.499997)"><g><path d="M 55.84375 -80.15625 C 65.226562 -80.15625 72.210938 -77.488281 76.796875 -72.15625 C 81.390625 -66.820312 83.6875 -58.769531 83.6875 -48 L 83.6875 -8.640625 C 83.6875 -5.648438 82.804688 -3.300781 81.046875 -1.59375 C 79.285156 0.101562 76.859375 0.953125 73.765625 0.953125 C 70.671875 0.953125 68.21875 0.101562 66.40625 -1.59375 C 64.59375 -3.300781 63.6875 -5.648438 63.6875 -8.640625 L 63.6875 -46.875 C 63.6875 -52.957031 62.535156 -57.382812 60.234375 -60.15625 C 57.941406 -62.925781 54.34375 -64.3125 49.4375 -64.3125 C 43.675781 -64.3125 39.0625 -62.5 35.59375 -58.875 C 32.132812 -55.25 30.40625 -50.394531 30.40625 -44.3125 L 30.40625 -8.640625 C 30.40625 -5.648438 29.492188 -3.300781 27.671875 -1.59375 C 25.859375 0.101562 23.40625 0.953125 20.3125 0.953125 C 17.226562 0.953125 14.804688 0.101562 13.046875 -1.59375 C 11.285156 -3.300781 10.40625 -5.648438 10.40625 -8.640625 L 10.40625 -70.5625 C 10.40625 -73.332031 11.3125 -75.570312 13.125 -77.28125 C 14.9375 -78.988281 17.390625 -79.84375 20.484375 -79.84375 C 23.253906 -79.84375 25.519531 -79.015625 27.28125 -77.359375 C 29.039062 -75.703125 29.921875 -73.539062 29.921875 -70.875 L 29.921875 -66.5625 C 32.585938 -70.9375 36.160156 -74.296875 40.640625 -76.640625 C 45.117188 -78.984375 50.1875 -80.15625 55.84375 -80.15625 Z M 55.84375 -80.15625 "/></g></g></g><g fill="rgb(100%, 100%, 100%)" fill-opacity="1"><g transform="translate(780.548558, 457.499997)"><g><path d="M 72.3125 -21.4375 C 74.132812 -21.4375 75.601562 -20.742188 76.71875 -19.359375 C 77.84375 -17.972656 78.40625 -16.109375 78.40625 -13.765625 C 78.40625 -10.453125 76.429688 -7.675781 72.484375 -5.4375 C 68.859375 -3.414062 64.75 -1.789062 60.15625 -0.5625 C 55.570312 0.664062 51.203125 1.28125 47.046875 1.28125 C 34.453125 1.28125 24.472656 -2.34375 17.109375 -9.59375 C 9.753906 -16.851562 6.078125 -26.773438 6.078125 -39.359375 C 6.078125 -47.359375 7.675781 -54.453125 10.875 -60.640625 C 14.082031 -66.828125 18.59375 -71.625 24.40625 -75.03125 C 30.21875 -78.445312 36.800781 -80.15625 44.15625 -80.15625 C 51.195312 -80.15625 57.332031 -78.609375 62.5625 -75.515625 C 67.789062 -72.421875 71.84375 -68.046875 74.71875 -62.390625 C 77.601562 -56.742188 79.046875 -50.082031 79.046875 -42.40625 C 79.046875 -37.8125 77.015625 -35.515625 72.953125 -35.515625 L 25.765625 -35.515625 C 26.398438 -28.160156 28.476562 -22.75 32 -19.28125 C 35.519531 -15.8125 40.640625 -14.078125 47.359375 -14.078125 C 50.773438 -14.078125 53.785156 -14.503906 56.390625 -15.359375 C 59.003906 -16.210938 61.96875 -17.382812 65.28125 -18.875 C 68.476562 -20.582031 70.820312 -21.4375 72.3125 -21.4375 Z M 44.640625 -66.078125 C 39.203125 -66.078125 34.851562 -64.367188 31.59375 -60.953125 C 28.34375 -57.546875 26.398438 -52.640625 25.765625 -46.234375 L 61.921875 -46.234375 C 61.703125 -52.742188 60.097656 -57.675781 57.109375 -61.03125 C 54.128906 -64.394531 49.972656 -66.078125 44.640625 -66.078125 Z M 44.640625 -66.078125 "/></g></g></g><g fill="rgb(100%, 100%, 100%)" fill-opacity="1"><g transform="translate(865.50647, 457.499997)"><g><path d="M 54.078125 -79.84375 C 56.847656 -80.050781 59.035156 -79.460938 60.640625 -78.078125 C 62.242188 -76.691406 63.046875 -74.613281 63.046875 -71.84375 C 63.046875 -68.957031 62.347656 -66.820312 60.953125 -65.4375 C 59.566406 -64.050781 57.0625 -63.144531 53.4375 -62.71875 L 48.640625 -62.234375 C 42.347656 -61.597656 37.734375 -59.46875 34.796875 -55.84375 C 31.867188 -52.21875 30.40625 -47.679688 30.40625 -42.234375 L 30.40625 -8.640625 C 30.40625 -5.546875 29.441406 -3.171875 27.515625 -1.515625 C 25.597656 0.128906 23.195312 0.953125 20.3125 0.953125 C 17.4375 0.953125 15.066406 0.128906 13.203125 -1.515625 C 11.335938 -3.171875 10.40625 -5.546875 10.40625 -8.640625 L 10.40625 -70.5625 C 10.40625 -73.550781 11.335938 -75.84375 13.203125 -77.4375 C 15.066406 -79.039062 17.382812 -79.84375 20.15625 -79.84375 C 22.925781 -79.84375 25.164062 -79.066406 26.875 -77.515625 C 28.582031 -75.972656 29.4375 -73.757812 29.4375 -70.875 L 29.4375 -64.484375 C 31.46875 -69.171875 34.484375 -72.796875 38.484375 -75.359375 C 42.484375 -77.921875 46.9375 -79.363281 51.84375 -79.6875 Z M 54.078125 -79.84375 "/></g></g></g><g fill="rgb(100%, 100%, 100%)" fill-opacity="1"><g transform="translate(926.784955, 457.499997)"><g><path d="M 76.640625 -79.84375 C 79.628906 -79.84375 82.03125 -78.988281 83.84375 -77.28125 C 85.65625 -75.570312 86.5625 -73.28125 86.5625 -70.40625 L 86.5625 -7.203125 C 86.5625 5.066406 83.144531 14.347656 76.3125 20.640625 C 69.488281 26.929688 59.410156 30.078125 46.078125 30.078125 C 34.453125 30.078125 24.742188 27.890625 16.953125 23.515625 C 13.015625 21.171875 11.046875 18.347656 11.046875 15.046875 C 11.046875 12.691406 11.601562 10.820312 12.71875 9.4375 C 13.84375 8.050781 15.3125 7.359375 17.125 7.359375 C 18.082031 7.359375 19.253906 7.597656 20.640625 8.078125 C 22.023438 8.554688 23.460938 9.117188 24.953125 9.765625 C 28.796875 11.359375 32.238281 12.582031 35.28125 13.4375 C 38.320312 14.289062 41.816406 14.71875 45.765625 14.71875 C 59.734375 14.71875 66.71875 7.890625 66.71875 -5.765625 L 66.71875 -16 C 64.375 -11.625 60.960938 -8.234375 56.484375 -5.828125 C 52.003906 -3.429688 46.882812 -2.234375 41.125 -2.234375 C 34.289062 -2.234375 28.234375 -3.859375 22.953125 -7.109375 C 17.679688 -10.367188 13.550781 -14.929688 10.5625 -20.796875 C 7.570312 -26.660156 6.078125 -33.4375 6.078125 -41.125 C 6.078125 -48.800781 7.539062 -55.597656 10.46875 -61.515625 C 13.40625 -67.441406 17.539062 -72.03125 22.875 -75.28125 C 28.207031 -78.53125 34.289062 -80.15625 41.125 -80.15625 C 46.882812 -80.15625 52.003906 -78.953125 56.484375 -76.546875 C 60.960938 -74.148438 64.375 -70.769531 66.71875 -66.40625 L 66.71875 -70.5625 C 66.71875 -73.332031 67.625 -75.570312 69.4375 -77.28125 C 71.25 -78.988281 73.648438 -79.84375 76.640625 -79.84375 Z M 46.40625 -17.765625 C 52.800781 -17.765625 57.785156 -19.84375 61.359375 -24 C 64.929688 -28.15625 66.71875 -33.863281 66.71875 -41.125 C 66.71875 -48.476562 64.929688 -54.234375 61.359375 -58.390625 C 57.785156 -62.554688 52.800781 -64.640625 46.40625 -64.640625 C 40.101562 -64.640625 35.140625 -62.554688 31.515625 -58.390625 C 27.890625 -54.234375 26.078125 -48.476562 26.078125 -41.125 C 26.078125 -33.863281 27.890625 -28.15625 31.515625 -24 C 35.140625 -19.84375 40.101562 -17.765625 46.40625 -17.765625 Z M 46.40625 -17.765625 "/></g></g></g><g fill="rgb(100%, 100%, 100%)" fill-opacity="1"><g transform="translate(1023.582604, 457.499997)"><g><path d="M 64.953125 -74.078125 C 65.804688 -75.992188 66.953125 -77.40625 68.390625 -78.3125 C 69.835938 -79.226562 71.414062 -79.6875 73.125 -79.6875 C 75.570312 -79.6875 77.78125 -78.859375 79.75 -77.203125 C 81.726562 -75.546875 82.71875 -73.492188 82.71875 -71.046875 C 82.71875 -69.867188 82.398438 -68.640625 81.765625 -67.359375 L 38.078125 24.15625 C 36.265625 27.78125 33.4375 29.59375 29.59375 29.59375 C 27.144531 29.59375 24.984375 28.816406 23.109375 27.265625 C 21.242188 25.722656 20.3125 23.78125 20.3125 21.4375 C 20.3125 20.269531 20.632812 18.9375 21.28125 17.4375 L 32.15625 -5.4375 L 2.40625 -67.359375 C 1.863281 -68.421875 1.59375 -69.648438 1.59375 -71.046875 C 1.59375 -73.492188 2.632812 -75.570312 4.71875 -77.28125 C 6.800781 -78.988281 9.175781 -79.84375 11.84375 -79.84375 C 13.65625 -79.84375 15.304688 -79.390625 16.796875 -78.484375 C 18.296875 -77.578125 19.46875 -76.160156 20.3125 -74.234375 L 42.71875 -24.796875 Z M 64.953125 -74.078125 "/></g></g></g></svg>