<svg xmlns="http://www.w3.org/2000/svg" xmlns:xlink="http://www.w3.org/1999/xlink" width="1920" zoomAndPan="magnify" viewBox="0 0 1440 809.999993" height="1080" preserveAspectRatio="xMidYMid meet" version="1.0"><defs><g><g id="id1"/></g></defs><rect x="-144" width="1728" fill="rgb(100%, 100%, 100%)" y="-80.999999" height="971.999992" fill-opacity="1"/><rect x="-144" width="1728" fill="rgb(0%, 0%, 0%)" y="-80.999999" height="971.999992" fill-opacity="1"/><rect x="-144" width="1728" fill="rgb(100%, 100%, 100%)" y="-80.999999" height="971.999992" fill-opacity="1"/><rect x="-144" width="1728" fill="rgb(0%, 0%, 0%)" y="-80.999999" height="971.999992" fill-opacity="1"/><g fill="rgb(100%, 100%, 100%)" fill-opacity="1"><g transform="translate(377.131482, 457.499997)"><g><path d="M 49.125 0.796875 C 45.914062 0.796875 43.378906 -0.132812 41.515625 -2 C 39.648438 -3.863281 38.71875 -6.34375 38.71875 -9.4375 L 38.71875 -95.84375 L 9.59375 -95.84375 C 3.195312 -95.84375 0 -98.664062 0 -104.3125 C 0 -109.96875 3.195312 -112.796875 9.59375 -112.796875 L 88.484375 -112.796875 C 94.878906 -112.796875 98.078125 -109.96875 98.078125 -104.3125 C 98.078125 -98.664062 94.878906 -95.84375 88.484375 -95.84375 L 59.359375 -95.84375 L 59.359375 -9.4375 C 59.359375 -6.34375 58.425781 -3.863281 56.5625 -2 C 54.695312 -0.132812 52.21875 0.796875 49.125 0.796875 Z M 49.125 0.796875 "/></g></g></g><g fill="rgb(100%, 100%, 100%)" fill-opacity="1"><g transform="translate(475.209084, 457.499997)"><g><path d="M 72.3125 -21.4375 C 74.132812 -21.4375 75.601562 -20.742188 76.71875 -19.359375 C 77.84375 -17.972656 78.40625 -16.109375 78.40625 -13.765625 C 78.40625 -10.453125 76.429688 -7.675781 72.484375 -5.4375 C 68.859375 -3.414062 64.75 -1.789062 60.15625 -0.5625 C 55.570312 0.664062 51.203125 1.28125 47.046875 1.28125 C 34.453125 1.28125 24.472656 -2.34375 17.109375 -9.59375 C 9.753906 -16.851562 6.078125 -26.773438 6.078125 -39.359375 C 6.078125 -47.359375 7.675781 -54.453125 10.875 -60.640625 C 14.082031 -66.828125 18.59375 -71.625 24.40625 -75.03125 C 30.21875 -78.445312 36.800781 -80.15625 44.15625 -80.15625 C 51.195312 -80.15625 57.332031 -78.609375 62.5625 -75.515625 C 67.789062 -72.421875 71.84375 -68.046875 74.71875 -62.390625 C 77.601562 -56.742188 79.046875 -50.082031 79.046875 -42.40625 C 79.046875 -37.8125 77.015625 -35.515625 72.953125 -35.515625 L 25.765625 -35.515625 C 26.398438 -28.160156 28.476562 -22.75 32 -19.28125 C 35.519531 -15.8125 40.640625 -14.078125 47.359375 -14.078125 C 50.773438 -14.078125 53.785156 -14.503906 56.390625 -15.359375 C 59.003906 -16.210938 61.96875 -17.382812 65.28125 -18.875 C 68.476562 -20.582031 70.820312 -21.4375 72.3125 -21.4375 Z M 44.640625 -66.078125 C 39.203125 -66.078125 34.851562 -64.367188 31.59375 -60.953125 C 28.34375 -57.546875 26.398438 -52.640625 25.765625 -46.234375 L 61.921875 -46.234375 C 61.703125 -52.742188 60.097656 -57.675781 57.109375 -61.03125 C 54.128906 -64.394531 49.972656 -66.078125 44.640625 -66.078125 Z M 44.640625 -66.078125 "/></g></g></g><g fill="rgb(100%, 100%, 100%)" fill-opacity="1"><g transform="translate(560.167007, 457.499997)"><g><path d="M 45.125 1.28125 C 37.332031 1.28125 30.476562 -0.367188 24.5625 -3.671875 C 18.644531 -6.984375 14.082031 -11.675781 10.875 -17.75 C 7.675781 -23.832031 6.078125 -30.929688 6.078125 -39.046875 C 6.078125 -47.148438 7.753906 -54.320312 11.109375 -60.5625 C 14.472656 -66.800781 19.195312 -71.625 25.28125 -75.03125 C 31.363281 -78.445312 38.347656 -80.15625 46.234375 -80.15625 C 50.398438 -80.15625 54.585938 -79.566406 58.796875 -78.390625 C 63.015625 -77.222656 66.722656 -75.625 69.921875 -73.59375 C 73.335938 -71.351562 75.046875 -68.53125 75.046875 -65.125 C 75.046875 -62.769531 74.484375 -60.875 73.359375 -59.4375 C 72.242188 -58 70.773438 -57.28125 68.953125 -57.28125 C 67.785156 -57.28125 66.5625 -57.546875 65.28125 -58.078125 C 64 -58.609375 62.71875 -59.25 61.4375 -60 C 59.09375 -61.382812 56.851562 -62.476562 54.71875 -63.28125 C 52.582031 -64.082031 50.128906 -64.484375 47.359375 -64.484375 C 40.742188 -64.484375 35.648438 -62.320312 32.078125 -58 C 28.503906 -53.675781 26.71875 -47.460938 26.71875 -39.359375 C 26.71875 -31.359375 28.503906 -25.195312 32.078125 -20.875 C 35.648438 -16.5625 40.742188 -14.40625 47.359375 -14.40625 C 50.023438 -14.40625 52.394531 -14.800781 54.46875 -15.59375 C 56.550781 -16.394531 58.875 -17.488281 61.4375 -18.875 C 63.039062 -19.832031 64.425781 -20.550781 65.59375 -21.03125 C 66.769531 -21.519531 67.945312 -21.765625 69.125 -21.765625 C 70.832031 -21.765625 72.269531 -21.015625 73.4375 -19.515625 C 74.613281 -18.023438 75.203125 -16.160156 75.203125 -13.921875 C 75.203125 -12.109375 74.800781 -10.535156 74 -9.203125 C 73.195312 -7.867188 71.890625 -6.664062 70.078125 -5.59375 C 66.773438 -3.46875 62.9375 -1.789062 58.5625 -0.5625 C 54.1875 0.664062 49.707031 1.28125 45.125 1.28125 Z M 45.125 1.28125 "/></g></g></g><g fill="rgb(100%, 100%, 100%)" fill-opacity="1"><g transform="translate(638.245086, 457.499997)"><g><path d="M 56.15625 -80.15625 C 74.507812 -80.15625 83.6875 -69.4375 83.6875 -48 L 83.6875 -8.640625 C 83.6875 -5.648438 82.804688 -3.300781 81.046875 -1.59375 C 79.285156 0.101562 76.859375 0.953125 73.765625 0.953125 C 70.671875 0.953125 68.21875 0.101562 66.40625 -1.59375 C 64.59375 -3.300781 63.6875 -5.648438 63.6875 -8.640625 L 63.6875 -48 C 63.6875 -53.65625 62.535156 -57.785156 60.234375 -60.390625 C 57.941406 -63.003906 54.34375 -64.3125 49.4375 -64.3125 C 43.675781 -64.3125 39.0625 -62.5 35.59375 -58.875 C 32.132812 -55.25 30.40625 -50.394531 30.40625 -44.3125 L 30.40625 -8.640625 C 30.40625 -5.648438 29.492188 -3.300781 27.671875 -1.59375 C 25.859375 0.101562 23.40625 0.953125 20.3125 0.953125 C 17.226562 0.953125 14.804688 0.101562 13.046875 -1.59375 C 11.285156 -3.300781 10.40625 -5.648438 10.40625 -8.640625 L 10.40625 -104.3125 C 10.40625 -107.09375 11.335938 -109.332031 13.203125 -111.03125 C 15.066406 -112.738281 17.492188 -113.59375 20.484375 -113.59375 C 23.460938 -113.59375 25.859375 -112.789062 27.671875 -111.1875 C 29.492188 -109.59375 30.40625 -107.410156 30.40625 -104.640625 L 30.40625 -67.359375 C 33.070312 -71.515625 36.617188 -74.6875 41.046875 -76.875 C 45.472656 -79.0625 50.507812 -80.15625 56.15625 -80.15625 Z M 56.15625 -80.15625 "/></g></g></g><g fill="rgb(100%, 100%, 100%)" fill-opacity="1"><g transform="translate(731.842784, 457.499997)"><g><path d="M 49.921875 -97.921875 C 45.015625 -97.597656 41.441406 -96.101562 39.203125 -93.4375 C 36.960938 -90.769531 35.84375 -86.929688 35.84375 -81.921875 L 35.84375 -78.234375 L 49.4375 -78.234375 C 55.414062 -78.234375 58.40625 -75.726562 58.40625 -70.71875 C 58.40625 -65.707031 55.414062 -63.203125 49.4375 -63.203125 L 35.84375 -63.203125 L 35.84375 -8.640625 C 35.84375 -5.546875 34.90625 -3.195312 33.03125 -1.59375 C 31.164062 0 28.796875 0.796875 25.921875 0.796875 C 23.035156 0.796875 20.632812 0 18.71875 -1.59375 C 16.800781 -3.195312 15.84375 -5.546875 15.84375 -8.640625 L 15.84375 -63.203125 L 7.84375 -63.203125 C 1.863281 -63.203125 -1.125 -65.707031 -1.125 -70.71875 C -1.125 -75.726562 1.863281 -78.234375 7.84375 -78.234375 L 15.84375 -78.234375 L 15.84375 -79.359375 C 15.84375 -89.390625 18.484375 -97.253906 23.765625 -102.953125 C 29.046875 -108.660156 36.484375 -111.890625 46.078125 -112.640625 L 50.234375 -112.953125 C 54.503906 -113.273438 57.519531 -112.820312 59.28125 -111.59375 C 61.039062 -110.375 61.921875 -108.484375 61.921875 -105.921875 C 61.921875 -101.335938 59.304688 -98.773438 54.078125 -98.234375 Z M 49.921875 -97.921875 "/></g></g></g><g fill="rgb(100%, 100%, 100%)" fill-opacity="1"><g transform="translate(789.121376, 457.499997)"><g><path d="M 72.3125 -21.4375 C 74.132812 -21.4375 75.601562 -20.742188 76.71875 -19.359375 C 77.84375 -17.972656 78.40625 -16.109375 78.40625 -13.765625 C 78.40625 -10.453125 76.429688 -7.675781 72.484375 -5.4375 C 68.859375 -3.414062 64.75 -1.789062 60.15625 -0.5625 C 55.570312 0.664062 51.203125 1.28125 47.046875 1.28125 C 34.453125 1.28125 24.472656 -2.34375 17.109375 -9.59375 C 9.753906 -16.851562 6.078125 -26.773438 6.078125 -39.359375 C 6.078125 -47.359375 7.675781 -54.453125 10.875 -60.640625 C 14.082031 -66.828125 18.59375 -71.625 24.40625 -75.03125 C 30.21875 -78.445312 36.800781 -80.15625 44.15625 -80.15625 C 51.195312 -80.15625 57.332031 -78.609375 62.5625 -75.515625 C 67.789062 -72.421875 71.84375 -68.046875 74.71875 -62.390625 C 77.601562 -56.742188 79.046875 -50.082031 79.046875 -42.40625 C 79.046875 -37.8125 77.015625 -35.515625 72.953125 -35.515625 L 25.765625 -35.515625 C 26.398438 -28.160156 28.476562 -22.75 32 -19.28125 C 35.519531 -15.8125 40.640625 -14.078125 47.359375 -14.078125 C 50.773438 -14.078125 53.785156 -14.503906 56.390625 -15.359375 C 59.003906 -16.210938 61.96875 -17.382812 65.28125 -18.875 C 68.476562 -20.582031 70.820312 -21.4375 72.3125 -21.4375 Z M 44.640625 -66.078125 C 39.203125 -66.078125 34.851562 -64.367188 31.59375 -60.953125 C 28.34375 -57.546875 26.398438 -52.640625 25.765625 -46.234375 L 61.921875 -46.234375 C 61.703125 -52.742188 60.097656 -57.675781 57.109375 -61.03125 C 54.128906 -64.394531 49.972656 -66.078125 44.640625 -66.078125 Z M 44.640625 -66.078125 "/></g></g></g><g fill="rgb(100%, 100%, 100%)" fill-opacity="1"><g transform="translate(874.079288, 457.499997)"><g><path d="M 72.15625 -79.84375 C 75.25 -79.84375 77.703125 -78.988281 79.515625 -77.28125 C 81.328125 -75.570312 82.234375 -73.28125 82.234375 -70.40625 L 82.234375 -8.3125 C 82.234375 -5.539062 81.300781 -3.300781 79.4375 -1.59375 C 77.570312 0.101562 75.144531 0.953125 72.15625 0.953125 C 69.28125 0.953125 66.988281 0.15625 65.28125 -1.4375 C 63.570312 -3.039062 62.71875 -5.226562 62.71875 -8 L 62.71875 -12 C 60.269531 -7.726562 56.960938 -4.445312 52.796875 -2.15625 C 48.640625 0.132812 43.945312 1.28125 38.71875 1.28125 C 19.519531 1.28125 9.921875 -9.492188 9.921875 -31.046875 L 9.921875 -70.40625 C 9.921875 -73.28125 10.828125 -75.570312 12.640625 -77.28125 C 14.453125 -78.988281 16.851562 -79.84375 19.84375 -79.84375 C 22.9375 -79.84375 25.390625 -78.988281 27.203125 -77.28125 C 29.015625 -75.570312 29.921875 -73.28125 29.921875 -70.40625 L 29.921875 -30.875 C 29.921875 -25.332031 31.039062 -21.226562 33.28125 -18.5625 C 35.519531 -15.894531 39.039062 -14.5625 43.84375 -14.5625 C 49.382812 -14.5625 53.832031 -16.398438 57.1875 -20.078125 C 60.550781 -23.753906 62.234375 -28.632812 62.234375 -34.71875 L 62.234375 -70.40625 C 62.234375 -73.28125 63.140625 -75.570312 64.953125 -77.28125 C 66.773438 -78.988281 69.175781 -79.84375 72.15625 -79.84375 Z M 72.15625 -79.84375 "/></g></g></g><g fill="rgb(100%, 100%, 100%)" fill-opacity="1"><g transform="translate(966.717009, 457.499997)"><g><path d="M 75.6875 -113.59375 C 78.664062 -113.59375 81.113281 -112.738281 83.03125 -111.03125 C 84.957031 -109.332031 85.921875 -107.09375 85.921875 -104.3125 L 85.921875 -8.640625 C 85.921875 -5.753906 85.015625 -3.457031 83.203125 -1.75 C 81.390625 -0.0507812 78.988281 0.796875 76 0.796875 C 73.007812 0.796875 70.609375 -0.0507812 68.796875 -1.75 C 66.984375 -3.457031 66.078125 -5.753906 66.078125 -8.640625 L 66.078125 -12.640625 C 63.734375 -8.265625 60.347656 -4.847656 55.921875 -2.390625 C 51.492188 0.0546875 46.453125 1.28125 40.796875 1.28125 C 34.078125 1.28125 28.078125 -0.421875 22.796875 -3.828125 C 17.515625 -7.242188 13.40625 -12.070312 10.46875 -18.3125 C 7.539062 -24.5625 6.078125 -31.738281 6.078125 -39.84375 C 6.078125 -47.945312 7.539062 -55.035156 10.46875 -61.109375 C 13.40625 -67.191406 17.488281 -71.882812 22.71875 -75.1875 C 27.945312 -78.5 33.972656 -80.15625 40.796875 -80.15625 C 46.453125 -80.15625 51.46875 -78.984375 55.84375 -76.640625 C 60.21875 -74.296875 63.578125 -70.988281 65.921875 -66.71875 L 65.921875 -104.640625 C 65.921875 -107.304688 66.800781 -109.460938 68.5625 -111.109375 C 70.320312 -112.765625 72.695312 -113.59375 75.6875 -113.59375 Z M 46.078125 -14.234375 C 52.484375 -14.234375 57.414062 -16.421875 60.875 -20.796875 C 64.34375 -25.171875 66.078125 -31.410156 66.078125 -39.515625 C 66.078125 -47.628906 64.34375 -53.84375 60.875 -58.15625 C 57.414062 -62.476562 52.535156 -64.640625 46.234375 -64.640625 C 39.835938 -64.640625 34.878906 -62.503906 31.359375 -58.234375 C 27.835938 -53.972656 26.078125 -47.84375 26.078125 -39.84375 C 26.078125 -31.738281 27.835938 -25.441406 31.359375 -20.953125 C 34.878906 -16.472656 39.785156 -14.234375 46.078125 -14.234375 Z M 46.078125 -14.234375 "/></g></g></g></svg>