<svg xmlns="http://www.w3.org/2000/svg" xmlns:xlink="http://www.w3.org/1999/xlink" width="1920" zoomAndPan="magnify" viewBox="0 0 1440 809.999993" height="1080" preserveAspectRatio="xMidYMid meet" version="1.0"><defs><g><g id="id1"/></g></defs><rect x="-144" width="1728" fill="rgb(100%, 100%, 100%)" y="-80.999999" height="971.999992" fill-opacity="1"/><rect x="-144" width="1728" fill="rgb(0%, 0%, 0%)" y="-80.999999" height="971.999992" fill-opacity="1"/><rect x="-144" width="1728" fill="rgb(100%, 100%, 100%)" y="-80.999999" height="971.999992" fill-opacity="1"/><rect x="-144" width="1728" fill="rgb(0%, 0%, 0%)" y="-80.999999" height="971.999992" fill-opacity="1"/><g fill="rgb(100%, 100%, 100%)" fill-opacity="1"><g transform="translate(230.490873, 457.499997)"><g><path d="M 49.125 0.796875 C 45.914062 0.796875 43.378906 -0.132812 41.515625 -2 C 39.648438 -3.863281 38.71875 -6.34375 38.71875 -9.4375 L 38.71875 -95.84375 L 9.59375 -95.84375 C 3.195312 -95.84375 0 -98.664062 0 -104.3125 C 0 -109.96875 3.195312 -112.796875 9.59375 -112.796875 L 88.484375 -112.796875 C 94.878906 -112.796875 98.078125 -109.96875 98.078125 -104.3125 C 98.078125 -98.664062 94.878906 -95.84375 88.484375 -95.84375 L 59.359375 -95.84375 L 59.359375 -9.4375 C 59.359375 -6.34375 58.425781 -3.863281 56.5625 -2 C 54.695312 -0.132812 52.21875 0.796875 49.125 0.796875 Z M 49.125 0.796875 "/></g></g></g><g fill="rgb(100%, 100%, 100%)" fill-opacity="1"><g transform="translate(328.568474, 457.499997)"><g><path d="M 72.3125 -21.4375 C 74.132812 -21.4375 75.601562 -20.742188 76.71875 -19.359375 C 77.84375 -17.972656 78.40625 -16.109375 78.40625 -13.765625 C 78.40625 -10.453125 76.429688 -7.675781 72.484375 -5.4375 C 68.859375 -3.414062 64.75 -1.789062 60.15625 -0.5625 C 55.570312 0.664062 51.203125 1.28125 47.046875 1.28125 C 34.453125 1.28125 24.472656 -2.34375 17.109375 -9.59375 C 9.753906 -16.851562 6.078125 -26.773438 6.078125 -39.359375 C 6.078125 -47.359375 7.675781 -54.453125 10.875 -60.640625 C 14.082031 -66.828125 18.59375 -71.625 24.40625 -75.03125 C 30.21875 -78.445312 36.800781 -80.15625 44.15625 -80.15625 C 51.195312 -80.15625 57.332031 -78.609375 62.5625 -75.515625 C 67.789062 -72.421875 71.84375 -68.046875 74.71875 -62.390625 C 77.601562 -56.742188 79.046875 -50.082031 79.046875 -42.40625 C 79.046875 -37.8125 77.015625 -35.515625 72.953125 -35.515625 L 25.765625 -35.515625 C 26.398438 -28.160156 28.476562 -22.75 32 -19.28125 C 35.519531 -15.8125 40.640625 -14.078125 47.359375 -14.078125 C 50.773438 -14.078125 53.785156 -14.503906 56.390625 -15.359375 C 59.003906 -16.210938 61.96875 -17.382812 65.28125 -18.875 C 68.476562 -20.582031 70.820312 -21.4375 72.3125 -21.4375 Z M 44.640625 -66.078125 C 39.203125 -66.078125 34.851562 -64.367188 31.59375 -60.953125 C 28.34375 -57.546875 26.398438 -52.640625 25.765625 -46.234375 L 61.921875 -46.234375 C 61.703125 -52.742188 60.097656 -57.675781 57.109375 -61.03125 C 54.128906 -64.394531 49.972656 -66.078125 44.640625 -66.078125 Z M 44.640625 -66.078125 "/></g></g></g><g fill="rgb(100%, 100%, 100%)" fill-opacity="1"><g transform="translate(413.526398, 457.499997)"><g><path d="M 45.125 1.28125 C 37.332031 1.28125 30.476562 -0.367188 24.5625 -3.671875 C 18.644531 -6.984375 14.082031 -11.675781 10.875 -17.75 C 7.675781 -23.832031 6.078125 -30.929688 6.078125 -39.046875 C 6.078125 -47.148438 7.753906 -54.320312 11.109375 -60.5625 C 14.472656 -66.800781 19.195312 -71.625 25.28125 -75.03125 C 31.363281 -78.445312 38.347656 -80.15625 46.234375 -80.15625 C 50.398438 -80.15625 54.585938 -79.566406 58.796875 -78.390625 C 63.015625 -77.222656 66.722656 -75.625 69.921875 -73.59375 C 73.335938 -71.351562 75.046875 -68.53125 75.046875 -65.125 C 75.046875 -62.769531 74.484375 -60.875 73.359375 -59.4375 C 72.242188 -58 70.773438 -57.28125 68.953125 -57.28125 C 67.785156 -57.28125 66.5625 -57.546875 65.28125 -58.078125 C 64 -58.609375 62.71875 -59.25 61.4375 -60 C 59.09375 -61.382812 56.851562 -62.476562 54.71875 -63.28125 C 52.582031 -64.082031 50.128906 -64.484375 47.359375 -64.484375 C 40.742188 -64.484375 35.648438 -62.320312 32.078125 -58 C 28.503906 -53.675781 26.71875 -47.460938 26.71875 -39.359375 C 26.71875 -31.359375 28.503906 -25.195312 32.078125 -20.875 C 35.648438 -16.5625 40.742188 -14.40625 47.359375 -14.40625 C 50.023438 -14.40625 52.394531 -14.800781 54.46875 -15.59375 C 56.550781 -16.394531 58.875 -17.488281 61.4375 -18.875 C 63.039062 -19.832031 64.425781 -20.550781 65.59375 -21.03125 C 66.769531 -21.519531 67.945312 -21.765625 69.125 -21.765625 C 70.832031 -21.765625 72.269531 -21.015625 73.4375 -19.515625 C 74.613281 -18.023438 75.203125 -16.160156 75.203125 -13.921875 C 75.203125 -12.109375 74.800781 -10.535156 74 -9.203125 C 73.195312 -7.867188 71.890625 -6.664062 70.078125 -5.59375 C 66.773438 -3.46875 62.9375 -1.789062 58.5625 -0.5625 C 54.1875 0.664062 49.707031 1.28125 45.125 1.28125 Z M 45.125 1.28125 "/></g></g></g><g fill="rgb(100%, 100%, 100%)" fill-opacity="1"><g transform="translate(491.604477, 457.499997)"><g><path d="M 56.15625 -80.15625 C 74.507812 -80.15625 83.6875 -69.4375 83.6875 -48 L 83.6875 -8.640625 C 83.6875 -5.648438 82.804688 -3.300781 81.046875 -1.59375 C 79.285156 0.101562 76.859375 0.953125 73.765625 0.953125 C 70.671875 0.953125 68.21875 0.101562 66.40625 -1.59375 C 64.59375 -3.300781 63.6875 -5.648438 63.6875 -8.640625 L 63.6875 -48 C 63.6875 -53.65625 62.535156 -57.785156 60.234375 -60.390625 C 57.941406 -63.003906 54.34375 -64.3125 49.4375 -64.3125 C 43.675781 -64.3125 39.0625 -62.5 35.59375 -58.875 C 32.132812 -55.25 30.40625 -50.394531 30.40625 -44.3125 L 30.40625 -8.640625 C 30.40625 -5.648438 29.492188 -3.300781 27.671875 -1.59375 C 25.859375 0.101562 23.40625 0.953125 20.3125 0.953125 C 17.226562 0.953125 14.804688 0.101562 13.046875 -1.59375 C 11.285156 -3.300781 10.40625 -5.648438 10.40625 -8.640625 L 10.40625 -104.3125 C 10.40625 -107.09375 11.335938 -109.332031 13.203125 -111.03125 C 15.066406 -112.738281 17.492188 -113.59375 20.484375 -113.59375 C 23.460938 -113.59375 25.859375 -112.789062 27.671875 -111.1875 C 29.492188 -109.59375 30.40625 -107.410156 30.40625 -104.640625 L 30.40625 -67.359375 C 33.070312 -71.515625 36.617188 -74.6875 41.046875 -76.875 C 45.472656 -79.0625 50.507812 -80.15625 56.15625 -80.15625 Z M 56.15625 -80.15625 "/></g></g></g><g fill="rgb(100%, 100%, 100%)" fill-opacity="1"><g transform="translate(585.202174, 457.499997)"><g/></g></g><g fill="rgb(100%, 100%, 100%)" fill-opacity="1"><g transform="translate(628.561135, 457.499997)"><g><path d="M 49.125 0.796875 C 45.914062 0.796875 43.378906 -0.132812 41.515625 -2 C 39.648438 -3.863281 38.71875 -6.34375 38.71875 -9.4375 L 38.71875 -95.84375 L 9.59375 -95.84375 C 3.195312 -95.84375 0 -98.664062 0 -104.3125 C 0 -109.96875 3.195312 -112.796875 9.59375 -112.796875 L 88.484375 -112.796875 C 94.878906 -112.796875 98.078125 -109.96875 98.078125 -104.3125 C 98.078125 -98.664062 94.878906 -95.84375 88.484375 -95.84375 L 59.359375 -95.84375 L 59.359375 -9.4375 C 59.359375 -6.34375 58.425781 -3.863281 56.5625 -2 C 54.695312 -0.132812 52.21875 0.796875 49.125 0.796875 Z M 49.125 0.796875 "/></g></g></g><g fill="rgb(100%, 100%, 100%)" fill-opacity="1"><g transform="translate(726.638737, 457.499997)"><g><path d="M 44.3125 -80.15625 C 55.195312 -80.15625 63.28125 -77.460938 68.5625 -72.078125 C 73.84375 -66.691406 76.484375 -58.503906 76.484375 -47.515625 L 76.484375 -8.484375 C 76.484375 -5.597656 75.628906 -3.328125 73.921875 -1.671875 C 72.210938 -0.0234375 69.863281 0.796875 66.875 0.796875 C 64.101562 0.796875 61.835938 -0.0507812 60.078125 -1.75 C 58.316406 -3.457031 57.4375 -5.703125 57.4375 -8.484375 L 57.4375 -12 C 55.625 -7.84375 52.769531 -4.585938 48.875 -2.234375 C 44.988281 0.109375 40.484375 1.28125 35.359375 1.28125 C 30.128906 1.28125 25.378906 0.210938 21.109375 -1.921875 C 16.847656 -4.054688 13.488281 -6.988281 11.03125 -10.71875 C 8.582031 -14.445312 7.359375 -18.609375 7.359375 -23.203125 C 7.359375 -28.960938 8.820312 -33.492188 11.75 -36.796875 C 14.6875 -40.109375 19.460938 -42.507812 26.078125 -44 C 32.691406 -45.488281 41.8125 -46.234375 53.4375 -46.234375 L 57.4375 -46.234375 L 57.4375 -49.921875 C 57.4375 -55.148438 56.316406 -58.960938 54.078125 -61.359375 C 51.835938 -63.753906 48.210938 -64.953125 43.203125 -64.953125 C 40.109375 -64.953125 36.957031 -64.5 33.75 -63.59375 C 30.550781 -62.6875 26.769531 -61.382812 22.40625 -59.6875 C 19.625 -58.289062 17.59375 -57.59375 16.3125 -57.59375 C 14.394531 -57.59375 12.820312 -58.285156 11.59375 -59.671875 C 10.375 -61.066406 9.765625 -62.882812 9.765625 -65.125 C 9.765625 -66.9375 10.21875 -68.507812 11.125 -69.84375 C 12.03125 -71.175781 13.550781 -72.425781 15.6875 -73.59375 C 19.414062 -75.625 23.863281 -77.222656 29.03125 -78.390625 C 34.207031 -79.566406 39.300781 -80.15625 44.3125 -80.15625 Z M 39.359375 -13.125 C 44.691406 -13.125 49.035156 -14.910156 52.390625 -18.484375 C 55.753906 -22.054688 57.4375 -26.664062 57.4375 -32.3125 L 57.4375 -35.6875 L 54.5625 -35.6875 C 47.414062 -35.6875 41.867188 -35.363281 37.921875 -34.71875 C 33.972656 -34.082031 31.144531 -32.960938 29.4375 -31.359375 C 27.726562 -29.753906 26.875 -27.566406 26.875 -24.796875 C 26.875 -21.390625 28.070312 -18.59375 30.46875 -16.40625 C 32.875 -14.21875 35.835938 -13.125 39.359375 -13.125 Z M 39.359375 -13.125 "/></g></g></g><g fill="rgb(100%, 100%, 100%)" fill-opacity="1"><g transform="translate(813.036636, 457.499997)"><g><path d="M 45.125 1.28125 C 37.332031 1.28125 30.476562 -0.367188 24.5625 -3.671875 C 18.644531 -6.984375 14.082031 -11.675781 10.875 -17.75 C 7.675781 -23.832031 6.078125 -30.929688 6.078125 -39.046875 C 6.078125 -47.148438 7.753906 -54.320312 11.109375 -60.5625 C 14.472656 -66.800781 19.195312 -71.625 25.28125 -75.03125 C 31.363281 -78.445312 38.347656 -80.15625 46.234375 -80.15625 C 50.398438 -80.15625 54.585938 -79.566406 58.796875 -78.390625 C 63.015625 -77.222656 66.722656 -75.625 69.921875 -73.59375 C 73.335938 -71.351562 75.046875 -68.53125 75.046875 -65.125 C 75.046875 -62.769531 74.484375 -60.875 73.359375 -59.4375 C 72.242188 -58 70.773438 -57.28125 68.953125 -57.28125 C 67.785156 -57.28125 66.5625 -57.546875 65.28125 -58.078125 C 64 -58.609375 62.71875 -59.25 61.4375 -60 C 59.09375 -61.382812 56.851562 -62.476562 54.71875 -63.28125 C 52.582031 -64.082031 50.128906 -64.484375 47.359375 -64.484375 C 40.742188 -64.484375 35.648438 -62.320312 32.078125 -58 C 28.503906 -53.675781 26.71875 -47.460938 26.71875 -39.359375 C 26.71875 -31.359375 28.503906 -25.195312 32.078125 -20.875 C 35.648438 -16.5625 40.742188 -14.40625 47.359375 -14.40625 C 50.023438 -14.40625 52.394531 -14.800781 54.46875 -15.59375 C 56.550781 -16.394531 58.875 -17.488281 61.4375 -18.875 C 63.039062 -19.832031 64.425781 -20.550781 65.59375 -21.03125 C 66.769531 -21.519531 67.945312 -21.765625 69.125 -21.765625 C 70.832031 -21.765625 72.269531 -21.015625 73.4375 -19.515625 C 74.613281 -18.023438 75.203125 -16.160156 75.203125 -13.921875 C 75.203125 -12.109375 74.800781 -10.535156 74 -9.203125 C 73.195312 -7.867188 71.890625 -6.664062 70.078125 -5.59375 C 66.773438 -3.46875 62.9375 -1.789062 58.5625 -0.5625 C 54.1875 0.664062 49.707031 1.28125 45.125 1.28125 Z M 45.125 1.28125 "/></g></g></g><g fill="rgb(100%, 100%, 100%)" fill-opacity="1"><g transform="translate(891.114727, 457.499997)"><g/></g></g><g fill="rgb(100%, 100%, 100%)" fill-opacity="1"><g transform="translate(934.473688, 457.499997)"><g><path d="M 49.125 0.796875 C 45.914062 0.796875 43.378906 -0.132812 41.515625 -2 C 39.648438 -3.863281 38.71875 -6.34375 38.71875 -9.4375 L 38.71875 -95.84375 L 9.59375 -95.84375 C 3.195312 -95.84375 0 -98.664062 0 -104.3125 C 0 -109.96875 3.195312 -112.796875 9.59375 -112.796875 L 88.484375 -112.796875 C 94.878906 -112.796875 98.078125 -109.96875 98.078125 -104.3125 C 98.078125 -98.664062 94.878906 -95.84375 88.484375 -95.84375 L 59.359375 -95.84375 L 59.359375 -9.4375 C 59.359375 -6.34375 58.425781 -3.863281 56.5625 -2 C 54.695312 -0.132812 52.21875 0.796875 49.125 0.796875 Z M 49.125 0.796875 "/></g></g></g><g fill="rgb(100%, 100%, 100%)" fill-opacity="1"><g transform="translate(1032.551289, 457.499997)"><g><path d="M 46.078125 1.28125 C 38.078125 1.28125 31.0625 -0.367188 25.03125 -3.671875 C 19.007812 -6.984375 14.34375 -11.734375 11.03125 -17.921875 C 7.726562 -24.109375 6.078125 -31.304688 6.078125 -39.515625 C 6.078125 -47.734375 7.726562 -54.90625 11.03125 -61.03125 C 14.34375 -67.164062 19.007812 -71.882812 25.03125 -75.1875 C 31.0625 -78.5 38.078125 -80.15625 46.078125 -80.15625 C 54.078125 -80.15625 61.085938 -78.5 67.109375 -75.1875 C 73.140625 -71.882812 77.78125 -67.164062 81.03125 -61.03125 C 84.289062 -54.90625 85.921875 -47.734375 85.921875 -39.515625 C 85.921875 -31.304688 84.289062 -24.109375 81.03125 -17.921875 C 77.78125 -11.734375 73.140625 -6.984375 67.109375 -3.671875 C 61.085938 -0.367188 54.078125 1.28125 46.078125 1.28125 Z M 45.921875 -14.234375 C 52.429688 -14.234375 57.390625 -16.367188 60.796875 -20.640625 C 64.210938 -24.910156 65.921875 -31.203125 65.921875 -39.515625 C 65.921875 -47.734375 64.210938 -54 60.796875 -58.3125 C 57.390625 -62.632812 52.484375 -64.796875 46.078125 -64.796875 C 39.679688 -64.796875 34.75 -62.632812 31.28125 -58.3125 C 27.8125 -54 26.078125 -47.734375 26.078125 -39.515625 C 26.078125 -31.203125 27.78125 -24.910156 31.1875 -20.640625 C 34.601562 -16.367188 39.515625 -14.234375 45.921875 -14.234375 Z M 45.921875 -14.234375 "/></g></g></g><g fill="rgb(100%, 100%, 100%)" fill-opacity="1"><g transform="translate(1124.549057, 457.499997)"><g><path d="M 72.3125 -21.4375 C 74.132812 -21.4375 75.601562 -20.742188 76.71875 -19.359375 C 77.84375 -17.972656 78.40625 -16.109375 78.40625 -13.765625 C 78.40625 -10.453125 76.429688 -7.675781 72.484375 -5.4375 C 68.859375 -3.414062 64.75 -1.789062 60.15625 -0.5625 C 55.570312 0.664062 51.203125 1.28125 47.046875 1.28125 C 34.453125 1.28125 24.472656 -2.34375 17.109375 -9.59375 C 9.753906 -16.851562 6.078125 -26.773438 6.078125 -39.359375 C 6.078125 -47.359375 7.675781 -54.453125 10.875 -60.640625 C 14.082031 -66.828125 18.59375 -71.625 24.40625 -75.03125 C 30.21875 -78.445312 36.800781 -80.15625 44.15625 -80.15625 C 51.195312 -80.15625 57.332031 -78.609375 62.5625 -75.515625 C 67.789062 -72.421875 71.84375 -68.046875 74.71875 -62.390625 C 77.601562 -56.742188 79.046875 -50.082031 79.046875 -42.40625 C 79.046875 -37.8125 77.015625 -35.515625 72.953125 -35.515625 L 25.765625 -35.515625 C 26.398438 -28.160156 28.476562 -22.75 32 -19.28125 C 35.519531 -15.8125 40.640625 -14.078125 47.359375 -14.078125 C 50.773438 -14.078125 53.785156 -14.503906 56.390625 -15.359375 C 59.003906 -16.210938 61.96875 -17.382812 65.28125 -18.875 C 68.476562 -20.582031 70.820312 -21.4375 72.3125 -21.4375 Z M 44.640625 -66.078125 C 39.203125 -66.078125 34.851562 -64.367188 31.59375 -60.953125 C 28.34375 -57.546875 26.398438 -52.640625 25.765625 -46.234375 L 61.921875 -46.234375 C 61.703125 -52.742188 60.097656 -57.675781 57.109375 -61.03125 C 54.128906 -64.394531 49.972656 -66.078125 44.640625 -66.078125 Z M 44.640625 -66.078125 "/></g></g></g></svg>