<?xml version="1.0" encoding="utf-8"?>
<!-- Generator: Adobe Illustrator 19.2.1, SVG Export Plug-In . SVG Version: 6.00 Build 0)  -->
<svg version="1.1" id="layer" xmlns="http://www.w3.org/2000/svg" xmlns:xlink="http://www.w3.org/1999/xlink" x="0px" y="0px"
	 viewBox="0 0 652 652" style="enable-background:new 0 0 652 652;" xml:space="preserve">
<style type="text/css">
	.st0{fill:#363640;}
</style>
<path class="st0" d="M42.2,321.6c0-17.1,13.7-30.9,30.8-30.9c10.1,0,19.3,4.3,26.2,13l15.8-14.8c-10.2-12.7-26-19.7-42-19.7
	c-27.1,0-52.6,21.3-52.6,52.9c0,30.2,25.5,52.1,51.4,52.1c17.2,0,33-6.7,43.9-20.7l-16-14.6c-7,9.2-16.7,13.7-26.7,13.7
	C55.9,352.6,42.2,338.7,42.2,321.6 M190.8,330.5l40.6-58.6h-24.9l-26.3,39.5l-26.3-39.5h-25.3l40.7,58.8v41h21.5V330.5z
	 M252.3,371.6h21.6v-99.8h-21.6V371.6z M311.8,371.6h72.6v-20.4h-51.5v-58.9h51.5v-20.4h-72.6V371.6z M362,335.5
	c7.8,0,14.1-6.4,14.1-14.1c0-7.7-6.3-14-14.1-14c-7.7,0-14,6.3-14,14C348,329.1,354.3,335.5,362,335.5 M485.9,371.6H505v-99.8h-21.1
	v63.5l-47.4-63.5h-20.6v99.8H437v-65.5L485.9,371.6z M620.3,292.3v-20.4H533v20.4h32.9v79.3h21.6v-79.3H620.3z"/>
</svg>
