<svg xmlns="http://www.w3.org/2000/svg" xmlns:xlink="http://www.w3.org/1999/xlink" width="1920" zoomAndPan="magnify" viewBox="0 0 1440 809.999993" height="1080" preserveAspectRatio="xMidYMid meet" version="1.0"><rect x="-144" width="1728" fill="rgb(100%, 100%, 100%)" y="-80.999999" height="971.999992" fill-opacity="1"/><rect x="-144" width="1728" fill="rgb(100%, 100%, 100%)" y="-80.999999" height="971.999992" fill-opacity="1"/><rect x="-144" width="1728" fill="rgb(100%, 100%, 100%)" y="-80.999999" height="971.999992" fill-opacity="1"/><rect x="-144" width="1728" fill="rgb(100%, 100%, 100%)" y="-80.999999" height="971.999992" fill-opacity="1"/><path fill="rgb(21.179199%, 21.179199%, 25.099182%)" d="M 237.003906 397.351562 C 237.003906 368.257812 260.3125 344.78125 289.40625 344.78125 C 306.589844 344.78125 322.242188 352.09375 333.980469 366.898438 L 360.859375 341.71875 C 343.507812 320.109375 316.625 308.203125 289.40625 308.203125 C 243.300781 308.203125 199.917969 344.441406 199.917969 398.199219 C 199.917969 449.582031 243.300781 486.839844 287.363281 486.839844 C 316.625 486.839844 343.507812 475.441406 362.050781 451.621094 L 334.832031 426.78125 C 322.921875 442.433594 306.417969 450.089844 289.40625 450.089844 C 260.3125 450.089844 237.003906 426.441406 237.003906 397.351562 M 489.820312 412.492188 L 558.890625 312.796875 L 516.53125 312.796875 L 471.785156 379.996094 L 427.042969 312.796875 L 384 312.796875 L 453.242188 412.832031 L 453.242188 482.585938 L 489.820312 482.585938 Z M 594.449219 482.414062 L 631.199219 482.414062 L 631.199219 312.625 L 594.449219 312.625 Z M 695.675781 482.414062 L 819.191406 482.414062 L 819.191406 447.707031 L 731.574219 447.707031 L 731.574219 347.5 L 819.191406 347.5 L 819.191406 312.796875 L 695.675781 312.796875 Z M 781.082031 421 C 794.351562 421 805.070312 410.109375 805.070312 397.011719 C 805.070312 383.910156 794.351562 373.191406 781.082031 373.191406 C 767.984375 373.191406 757.265625 383.910156 757.265625 397.011719 C 757.265625 410.109375 767.984375 421 781.082031 421 M 991.875 482.414062 L 1024.371094 482.414062 L 1024.371094 312.625 L 988.472656 312.625 L 988.472656 420.65625 L 907.828125 312.625 L 872.78125 312.625 L 872.78125 482.414062 L 908.679688 482.414062 L 908.679688 370.980469 Z M 1220.53125 347.5 L 1220.53125 312.796875 L 1072.003906 312.796875 L 1072.003906 347.5 L 1127.980469 347.5 L 1127.980469 482.414062 L 1164.726562 482.414062 L 1164.726562 347.5 Z M 1220.53125 347.5 " fill-opacity="1" fill-rule="nonzero"/></svg>